<svg width="431" height="476" viewBox="0 0 431 476" fill="none" xmlns="http://www.w3.org/2000/svg">
<path d="M215.273 254.451C145.197 254.451 88.1899 197.377 88.1899 127.225C88.1899 57.0711 145.2 0 215.273 0C285.347 0 342.357 57.0738 342.357 127.225C342.353 197.379 285.343 254.451 215.273 254.451ZM215.273 29.0795C161.217 29.0795 117.237 73.108 117.237 127.225C117.237 181.343 161.216 225.371 215.273 225.371C269.329 225.371 313.31 181.343 313.31 127.225C313.306 73.1053 269.327 29.0795 215.273 29.0795Z" fill="white"/>
<path d="M366.347 301.909C360.586 300.199 293.377 276.489 293.377 276.489L242.381 356.165L238.539 288.667H192.027L188.185 356.165L137.19 276.489C137.19 276.489 69.9771 300.198 64.2198 301.909C21.1216 315.366 3.41398 391.621 0 476H431C427.586 391.624 409.451 315.37 366.349 301.909H366.347Z" fill="white"/>
<path d="M266.694 90.5296H165.2V149.876H266.694V90.5296Z" fill="white"/>
<path d="M288.165 159.559C287.747 158.923 287.021 158.523 286.259 158.523H278.924V81.149C278.924 79.8761 277.907 78.8403 276.654 78.8403H154.649C153.378 78.8403 152.362 79.8761 152.362 81.149V158.542H145.027C144.264 158.542 143.537 158.924 143.121 159.578C142.703 160.196 142.631 161.013 142.921 161.722L147.967 173.718C148.331 174.573 149.148 175.1 150.073 175.1H281.228C282.136 175.1 282.97 174.537 283.334 173.718L288.38 161.722C288.673 161.013 288.599 160.196 288.164 159.559H288.165ZM160.243 88.0563C160.243 86.8201 161.26 85.7843 162.512 85.7843H268.758C270.01 85.7843 271.045 86.8201 271.045 88.0563V151.818C271.045 153.091 270.01 154.126 268.758 154.126L162.528 154.125C161.276 154.125 160.259 153.089 160.259 151.816V88.055L160.243 88.0563Z" fill="white"/>
</svg>
