<svg width="250" height="289" viewBox="0 0 250 289" fill="none" xmlns="http://www.w3.org/2000/svg">
<path d="M162.403 205.538C161.964 201.575 162.842 197.612 164.604 194.088C169.445 186.601 175.168 178.672 181.329 170.307C182.649 168.986 183.97 167.665 185.29 166.783C176.488 155.333 164.604 146.084 150.96 140.8C137.756 154.013 119.71 161.939 100.347 161.939C80.9812 161.939 62.9353 154.013 49.7348 140.8C20.6858 151.81 0 179.997 0 213.466V240.771C0 245.177 3.5214 249.14 8.36315 249.14H149.203C147.883 240.771 148.764 230.204 153.163 217.43C154.922 213.025 158.444 209.504 162.407 207.741L162.403 205.538Z" fill="white"/>
<path d="M41.3686 81.7817C41.3686 117.015 67.7776 145.641 100.344 145.641C133.357 145.641 159.763 117.015 159.763 81.7817C159.763 78.258 159.763 75.1767 159.324 71.6529C168.568 43.9061 164.165 -6.74059 146.119 0.746429C130.275 7.35137 44.0105 -14.2268 49.292 21.8855C29.0447 22.7672 39.6093 62.4035 41.8103 71.211C41.8103 74.7347 41.3682 78.2583 41.3682 81.7817H41.3686ZM59.4145 83.542C61.6157 83.542 63.3749 81.7817 62.9359 79.579C61.6157 69.8899 59.8535 46.1084 68.2164 48.3081C78.7802 50.9501 90.2226 54.0344 100.345 54.0344C110.467 54.0344 121.912 50.95 132.473 48.3081C140.836 46.1054 139.074 69.8891 137.753 79.579C137.314 81.7817 139.513 83.542 141.275 83.542L144.796 83.1027C144.36 109.968 124.552 131.107 100.787 131.107C76.5794 131.107 57.2139 109.968 56.3353 83.1027L59.4145 83.542Z" fill="white"/>
<path d="M248.227 131.108C245.144 129.348 227.102 143.878 208.175 163.699C208.175 163.699 207.736 164.139 207.736 164.581L201.574 197.612L196.733 180.876C196.29 179.555 194.97 179.555 194.089 180.436C188.367 187.484 183.086 194.97 178.245 202.457C178.245 202.896 177.806 202.896 178.245 203.339L182.647 237.251L170.763 221.835C169.882 220.953 168.562 221.396 168.123 222.274C162.4 237.69 162.4 251.782 172.964 260.59L158.44 284.37C157.559 286.131 158.44 288.333 160.642 288.333H172.526C173.846 288.333 174.727 287.452 175.166 286.131C176.047 282.168 178.248 273.799 181.767 265.87C201.133 273.357 216.096 257.501 227.538 234.16C227.977 233.279 227.099 231.958 226.218 231.958L207.294 234.6L236.343 211.697C236.782 211.697 236.782 211.258 236.782 210.816C239.864 201.565 242.063 192.318 244.264 183.069C244.264 182.187 243.383 181.309 242.504 181.309L222.257 185.272L247.346 163.69C247.785 163.251 247.785 163.251 247.785 162.809C250.425 146.081 250.867 132.429 248.227 131.108Z" fill="white"/>
</svg>
