<svg width="421" height="388" viewBox="0 0 421 388" fill="none" xmlns="http://www.w3.org/2000/svg">
<path d="M20.57 180.65V381.15C20.57 384.775 23.5075 387.712 27.1325 387.712H396.823C400.448 387.712 403.385 384.775 403.385 381.15V179.96C399.612 181.417 395.565 182.202 391.362 182.202C389.151 182.202 386.971 181.929 384.846 181.413C382.975 184.866 380.608 188.042 377.819 190.835C370.163 198.491 359.862 202.761 349.034 202.761C338.761 202.761 328.964 198.921 321.448 191.991C313.933 198.921 304.136 202.761 293.862 202.761C283.589 202.761 273.792 198.921 266.276 191.991C258.761 198.921 248.964 202.761 238.69 202.761C228.417 202.761 218.62 198.921 211.104 191.991C203.589 198.921 193.792 202.761 183.518 202.761C173.245 202.761 163.448 198.921 155.932 191.991C148.417 198.921 138.62 202.761 128.346 202.761C118.073 202.761 108.276 198.921 100.76 191.991C93.2445 198.921 83.4481 202.761 73.1741 202.761C62.3461 202.761 52.0451 198.492 44.3891 190.835C41.5844 188.03 39.2094 184.839 37.3344 181.366C35.1508 181.909 32.9047 182.202 30.6235 182.202C27.1391 182.202 23.7641 181.663 20.5615 180.647L20.57 180.65ZM90.804 267.244H157.331C159.901 267.244 161.987 269.33 161.987 271.9V338.427C161.987 340.997 159.901 343.083 157.331 343.083H90.804C88.2337 343.083 86.1478 340.997 86.1478 338.427V271.9C86.1478 269.33 88.2337 267.244 90.804 267.244ZM338.744 374.994H271.865C268.943 374.994 266.576 372.627 266.576 369.705L266.041 272.537C266.041 269.615 268.408 267.248 271.33 267.248H338.209C341.131 267.248 343.498 269.615 343.498 272.537L344.033 369.705C344.033 372.627 341.666 374.994 338.744 374.994Z" fill="white"/>
<path d="M421 142.41C421 143.457 420.957 144.492 420.871 145.515C420.226 153.262 417.195 160.265 412.625 165.546C407.23 171.781 399.719 175.64 391.363 175.64C387.898 175.64 384.511 174.754 381.324 173.18C379.617 178.133 376.804 182.57 373.179 186.196C367 192.375 358.46 196.2 349.034 196.2C339.605 196.2 331.069 192.379 324.889 186.196C323.643 184.949 322.491 183.606 321.448 182.18C320.405 183.606 319.257 184.949 318.007 186.196C311.827 192.375 303.288 196.2 293.862 196.2C284.432 196.2 275.897 192.379 269.717 186.196C268.47 184.949 267.318 183.606 266.275 182.18C265.232 183.606 264.084 184.949 262.834 186.196C256.654 192.375 248.115 196.2 238.689 196.2C229.259 196.2 220.724 192.379 214.544 186.196C213.298 184.949 212.145 183.606 211.102 182.18C210.059 183.606 208.911 184.949 207.661 186.196C201.481 192.375 192.946 196.2 183.516 196.2C174.086 196.2 165.551 192.379 159.371 186.196C158.125 184.949 156.973 183.606 155.93 182.18C154.887 183.606 153.738 184.949 152.488 186.196C146.308 192.375 137.773 196.2 128.343 196.2C118.914 196.2 110.378 192.379 104.198 186.196C102.952 184.949 101.8 183.606 100.757 182.18C99.7138 183.606 98.5654 184.949 97.3154 186.196C91.1357 192.375 82.6004 196.2 73.1704 196.2C63.7407 196.2 55.2054 192.379 49.0254 186.196C45.3731 182.543 42.5488 178.074 40.8457 173.083V173.086C37.6035 174.719 34.1504 175.641 30.6187 175.641C22.2632 175.641 14.7517 171.786 9.3567 165.547C4.1848 159.567 0.985596 151.383 0.985596 142.406C0.985596 140.34 2.13399 133.269 4.76289 127.234L41.5679 42.7032C42.4546 40.129 44.8999 38.2812 47.771 38.2812H374.191C377.066 38.2812 379.507 40.129 380.394 42.7032L414.269 120.5C418.167 129.453 420.98 135.508 420.98 142.406L421 142.41Z" fill="white"/>
<path fill-rule="evenodd" clip-rule="evenodd" d="M288.5 313.98C292.582 313.98 295.887 317.289 295.887 321.367C295.887 325.449 292.578 328.753 288.5 328.753C284.418 328.753 281.113 325.445 281.113 321.367C281.113 317.285 284.422 313.98 288.5 313.98Z" fill="white"/>
<path fill-rule="evenodd" clip-rule="evenodd" d="M120.79 257.99H127.353V352.326H120.79V257.99Z" fill="white"/>
<path fill-rule="evenodd" clip-rule="evenodd" d="M171.23 301.88V308.443H76.8938V301.88H171.23Z" fill="white"/>
<path fill-rule="evenodd" clip-rule="evenodd" d="M43.8745 0.61322H374.558V29.6678H43.8745V0.61322Z" fill="white" stroke="white" stroke-width="0.569697"/>
</svg>
