<svg width="496" height="512" viewBox="0 0 496 512" fill="none" xmlns="http://www.w3.org/2000/svg">
<g clip-path="url(#clip0)">
<path d="M195.945 116.53C203.02 120.617 212.278 118.185 216.424 111.022C216.424 111.022 216.424 111.022 216.439 111.007C220.531 103.904 218.188 94.745 210.946 90.543C203.552 86.311 194.479 89.005 190.453 96.022C186.306 103.185 188.782 112.385 195.945 116.53V116.53Z" fill="white"/>
<path d="M264.368 207.995C271.582 212.13 280.716 209.663 284.861 202.502L329.861 124.558C334.007 117.38 331.546 108.21 324.368 104.065L142.507 2.023C135.329 -2.137 126.145 0.323998 122.014 7.516L77.014 85.446C72.868 92.624 75.329 101.794 82.507 105.939L264.368 207.995ZM164.465 81.022C176.929 59.438 204.435 52.154 225.944 64.557C247.386 76.939 254.887 104.414 242.409 126.022V126.037C230 147.497 202.419 154.887 180.944 142.502C159.441 130.08 152.058 102.497 164.465 81.022V81.022Z" fill="white"/>
<path d="M277.5 323.5C261.185 323.5 255.098 340.563 254.354 342.859C252.518 349.3 246.703 353.745 240 353.745C233.298 353.745 227.482 349.3 225.646 342.859C224.902 340.564 218.815 323.5 202.5 323.5C187.729 323.5 180 334.857 180 346.076C180 361.861 197.062 375.889 229.757 401.362C233.098 403.965 236.5 406.615 240 409.365C243.5 406.615 246.902 403.965 250.243 401.362C282.939 375.888 300 361.86 300 346.076C300 334.857 292.272 323.5 277.5 323.5Z" fill="white"/>
<path d="M450 120H361.608C361.163 126.817 359.339 133.51 355.811 139.6L315.17 210H360C368.291 210 375 216.709 375 225C375 233.291 368.291 240 360 240H120C111.709 240 105 233.291 105 225C105 216.709 111.709 210 120 210H206.651L67.822 132.1C62.323 128.931 57.755 124.798 54.126 120H30C21.709 120 15 126.709 15 135V497C15 505.291 21.709 512 30 512H450C458.291 512 465 505.291 465 497V135C465 126.709 458.291 120 450 120V120ZM268.682 425.026C262.512 429.833 256.133 434.803 249.37 440.213C246.631 442.404 243.315 443.5 240 443.5C236.685 443.5 233.369 442.404 230.63 440.213C223.867 434.803 217.488 429.833 211.318 425.026C175.721 397.292 150 377.253 150 346.076C150 316.594 173.061 293.5 202.5 293.5C217.065 293.5 229.922 299.134 240 309.862C250.078 299.134 262.935 293.5 277.5 293.5C306.939 293.5 330 316.594 330 346.076C330 377.253 304.279 397.292 268.682 425.026Z" fill="white"/>
</g>
<defs>
<clipPath id="clip0">
<rect width="512" height="512" fill="white" transform="translate(-16)"/>
</clipPath>
</defs>
</svg>
