<svg width="250" height="250" viewBox="0 0 250 250" fill="none" xmlns="http://www.w3.org/2000/svg">
<path d="M54.7225 195.276C59.4444 195.276 63.8891 194.166 68.0552 192.22C68.8884 191.664 70.0006 191.387 70.8337 190.831C68.6113 193.61 65.2787 195.83 61.9439 196.942C59.9986 197.498 57.7781 198.053 55.5556 198.053H54.4453C48.8903 197.775 43.8894 195.553 40.0005 191.385C44.1664 193.887 49.4444 195.276 54.7226 195.276H54.7225Z" fill="white"/>
<path d="M32.5005 173.887C26.3894 165.832 22.7773 156.109 22.7773 147.499C23.0564 130.554 37.2222 116.666 54.7225 116.666C71.9441 116.666 86.1117 130.554 86.1117 147.499C86.1117 156.109 82.5 166.11 76.3885 173.887C72.7768 178.609 64.9992 186.942 54.4452 186.942C43.8893 186.942 36.3888 178.888 32.5 173.887H32.5005Z" fill="white"/>
<path d="M109.723 245.276V249.998H0.556101C0.277083 249.998 0 249.721 0 249.442V245.276C0 223.887 13.0555 204.72 33.056 196.388C43.3332 208.331 61.3897 209.999 73.6124 199.443C74.7227 198.333 75.8349 197.498 76.6681 196.388C96.6661 204.72 109.722 224.165 109.722 245.276H109.723Z" fill="white"/>
<path d="M88.8892 44.9987H196.945C198.334 50.5537 203.612 54.4426 209.167 54.4426H221.667V74.1658C221.667 74.9989 221.111 75.555 220.277 75.555H88.611C87.7778 75.555 87.2217 74.9989 87.2217 74.1658V46.388C87.2217 45.5549 88.0549 44.9988 88.8881 44.9988L88.8892 44.9987Z" fill="white"/>
<path d="M204.722 41.9429V6.11084L244.167 46.111H209.167C206.668 46.111 204.722 44.1656 204.722 41.9432V41.9429Z" fill="white"/>
<path d="M250 54.4431V239.998C250 245.553 245.278 249.721 240 249.721H118.056V244.999C118.056 233.61 115 222.5 108.889 213.056H225.833C228.056 213.056 229.999 211.111 229.999 208.89C229.999 206.668 228.054 204.724 225.833 204.724L102.778 204.72C95.8338 196.666 86.6672 190.554 76.6667 186.943C76.3896 186.943 75.8335 186.666 75.5564 186.666C76.9457 185.555 78.335 184.166 79.4452 183.054C80.2784 184.164 81.3906 184.72 82.7779 184.72H225.555C227.778 184.72 229.721 182.775 229.721 180.554C229.721 178.332 227.776 176.389 225.555 176.389H85.0002C89.166 170.554 91.9446 163.889 93.6108 156.945H225.833C228.055 156.945 229.998 154.999 229.998 152.779C229.998 150.556 228.053 148.613 225.833 148.613L94.4441 148.611V147.222C94.4441 140.833 92.7777 134.722 89.9992 129.167H225.832C228.055 129.167 229.998 127.222 229.998 125.001C229.998 122.779 228.053 120.836 225.832 120.836L84.1659 120.834C77.4987 113.889 68.6109 109.444 58.8877 108.334V9.72319C58.8877 4.16815 63.6096 0 68.8877 0H196.387V36.6676H88.8876C83.3326 36.6676 79.1644 41.1125 79.1644 46.3908V74.1685C79.1644 79.7235 83.6093 83.8917 88.8876 83.8917H220.276C225.831 83.8917 229.999 79.4468 229.999 74.1685V54.4453L250 54.4431Z" fill="white"/>
</svg>
