<svg width="453" height="532" viewBox="0 0 453 532" fill="none" xmlns="http://www.w3.org/2000/svg">
<path d="M422.56 375.2V331.52L441.599 330.399C445.521 329.84 448.88 326.477 448.318 322.559L446.638 302.399C446.08 298.477 442.716 295.118 438.798 295.68H436.56C444.959 284.481 448.88 270.481 447.759 256.481C445.521 224.001 416.958 199.36 384.478 201.602C351.998 203.841 327.357 232.403 329.599 264.883C330.72 278.883 336.88 292.324 346.4 301.844H344.162C340.24 302.403 336.881 305.766 337.443 309.684L339.123 329.844C339.681 333.766 343.045 337.125 346.963 336.563L366.002 335.442L371.603 372.962L310.001 375.2C310.001 375.2 270.802 308.001 248.399 272.16C205.282 202.719 139.759 169.68 80.3991 221.199C21.5981 272.719 3.68011 422.799 0.321107 515.199C-0.237483 524.719 7.60231 532 16.5591 532H203.039C212 532 219.277 524.719 219.277 515.762V400.402L246.156 445.203C250.637 453.043 257.918 459.203 265.758 463.125C272.477 465.926 279.199 467.606 286.477 467.606L408.557 463.125C433.756 462.566 453.358 441.285 452.237 416.086C451.124 397.039 439.362 381.359 422.561 375.199L422.56 375.2ZM409.681 301.282C411.361 295.68 412.482 288.962 413.041 281.122L430.4 280.001C425.923 288.962 418.642 296.802 409.681 301.282L409.681 301.282ZM432.642 248.079C433.201 250.88 433.763 254.239 434.322 257.04V266.001L413.603 267.681C413.603 264.88 413.603 261.52 413.044 258.72C413.044 255.919 412.486 252.559 411.923 249.759L432.642 248.079ZM426.482 235.2L409.123 236.321C407.443 229.04 405.201 222.321 402.963 217.282C413.041 220.641 420.881 226.802 426.483 235.2L426.482 235.2ZM401.283 346.64C401.283 349.999 399.045 352.8 395.681 353.359C392.322 353.359 389.521 351.12 388.963 347.757L387.841 335.995C387.841 332.636 390.08 329.835 393.443 329.276C396.802 329.276 399.603 331.515 400.162 334.878L401.283 346.64ZM381.123 283.359L399.603 282.238C397.923 298.476 393.443 306.316 392.322 306.316C390.642 306.32 385.04 299.601 381.123 283.359L381.123 283.359ZM385.041 215.039C386.721 215.039 391.76 221.758 395.682 237.437L377.202 238.558C379.444 222.878 383.925 215.038 385.042 215.038L385.041 215.039ZM398.482 250.879C399.041 253.68 399.041 257.039 399.603 259.84C399.603 262.641 400.162 266 400.162 268.801L378.881 270.48C378.322 267.68 378.322 264.32 377.76 261.52C377.76 258.719 377.201 255.359 377.201 252.559L398.482 250.879ZM367.681 220.078C366.001 225.68 364.88 232.398 364.322 240.238L346.963 241.359C351.443 231.84 358.721 224.558 367.682 220.078L367.681 220.078ZM344.72 272.719C344.161 269.918 343.599 266.559 343.04 263.758V254.797L363.759 253.117C363.759 255.918 363.759 259.278 364.318 262.078C364.318 264.879 364.876 268.239 365.439 271.039L344.72 272.719ZM350.322 286.16L367.681 285.039C369.36 292.32 371.602 299.039 373.841 304.078C364.321 300.719 355.923 294.558 350.321 286.16L350.322 286.16Z" fill="black"/>
<path d="M244.48 201.6C299.921 201.6 345.28 156.241 345.28 100.8C345.28 45.359 299.921 0 244.48 0C189.039 0 143.68 45.359 143.68 100.8C143.68 156.238 188.481 201.6 244.48 201.6Z" fill="black"/>
</svg>
