<svg width="250" height="175" viewBox="0 0 250 175" fill="none" xmlns="http://www.w3.org/2000/svg">
<g clip-path="url(#clip0_1_47)">
<path fill-rule="evenodd" clip-rule="evenodd" d="M0 174.383C2.03461 148.014 -3.13329 149.154 18.9422 140.893C29.9698 136.763 44.0492 131.534 54.1612 125.206L73.1034 174.383H0ZM168.567 65.3481C167.001 65.1243 165.902 63.639 166.105 62.0114C166.309 60.3837 167.753 59.2443 169.32 59.4681L216.421 66.3654C217.988 66.5892 219.086 68.0745 218.883 69.7022C218.68 71.3299 217.235 72.4692 215.668 72.2454L168.567 65.3481ZM173.633 47.2808C172.067 47.057 170.968 45.5717 171.192 43.9441C171.395 42.3164 172.84 41.177 174.407 41.4008L198.293 45.002C199.859 45.2259 200.958 46.7111 200.755 48.3388C200.551 49.9665 199.107 51.1059 197.54 50.8821L173.633 47.2808ZM176.523 28.5828C174.956 28.359 173.857 26.8737 174.061 25.246C174.264 23.6183 175.709 22.4789 177.275 22.7028L224.376 29.6001C225.943 29.8239 227.042 31.3091 226.838 32.9368C226.635 34.5645 225.19 35.7039 223.624 35.4801L176.523 28.5828ZM94.7313 148.238H97.3763C99.7568 148.238 101.71 146.285 101.71 143.904V136.885C101.71 134.504 99.7568 132.551 97.3763 132.551H81.6895C79.309 132.551 77.3558 134.504 77.3558 136.885V143.904C77.3558 146.285 79.309 148.238 81.6895 148.238H84.3752L79.2276 174.383H99.6754L94.7313 148.238ZM212.962 11.4717L177.519 6.77178C175.2 6.46659 173.003 6.58867 170.988 7.13801C168.974 7.68736 167.041 8.64362 165.21 10.0272C163.399 11.4107 161.975 13.018 160.897 14.8288C159.839 16.6396 159.167 18.7149 158.842 21.0344L154.244 55.643C153.938 57.9625 151.415 65.4499 151.965 67.4641C152.514 69.4784 153.47 71.4112 154.874 73.2424C156.299 75.0532 157.906 76.5385 159.717 77.5558C161.527 78.5934 163.562 79.2852 165.882 79.5904L181.1 81.6046C182.87 81.8488 184.152 83.4968 183.908 85.2873C183.847 85.6942 183.725 86.0401 183.583 86.3656C182.728 88.4206 181.812 90.4755 180.816 92.4287C179.778 94.504 178.7 96.4573 177.54 98.3291C176.95 99.2854 176.299 100.201 175.587 101.137C178.883 100.16 182.036 98.9598 184.986 97.5356C188.079 96.0503 191.029 94.3209 193.756 92.3677C196.563 90.3941 199.107 88.1357 201.507 85.6942C202.26 84.921 203.278 84.6362 204.275 84.7583L217.357 86.4877C219.677 86.7929 221.813 86.6708 223.847 86.1215C225.862 85.5721 227.795 84.6158 229.666 83.2323C231.477 81.8488 232.901 80.2414 233.98 78.4306C235.038 76.6198 235.709 74.5445 236.035 72.2251L243.258 32.3264C243.563 30.007 243.441 27.8096 242.891 25.7954C242.342 23.7811 241.386 21.8279 240.002 20.0171C238.619 18.2063 237.011 16.7821 235.18 15.7037C233.369 14.6661 231.294 13.9743 228.975 13.6488L212.922 11.5124L212.962 11.4717ZM194.447 2.41773L229.89 7.09732C233.003 7.52459 235.872 8.48085 238.456 9.94577C241.02 11.4107 243.278 13.4249 245.211 15.9682C247.144 18.4911 248.487 21.1971 249.26 24.0659C250.013 26.9347 250.196 29.946 249.789 33.0996L242.545 72.9982C242.118 76.1519 241.162 79.0207 239.697 81.5639C238.232 84.1275 236.218 86.386 233.675 88.3188C231.152 90.2517 228.446 91.5539 225.577 92.3677C222.728 93.1205 219.697 93.324 216.543 92.8967L205.068 91.3707C202.728 93.6495 200.226 95.7655 197.642 97.6373C194.549 99.8551 191.294 101.788 187.876 103.395C184.437 105.064 180.816 106.427 177.011 107.526C173.247 108.604 169.259 109.397 165.108 109.926C163.928 110.089 162.708 109.56 161.995 108.522C160.978 107.037 161.365 105.003 162.87 103.965C164.966 102.581 166.777 101.076 168.282 99.5702C169.747 98.0849 170.988 96.5386 171.985 94.8906V94.8499C173.064 93.1002 174.081 91.2894 174.997 89.4582C175.302 88.8071 175.627 88.1357 175.953 87.4643L165.007 86.0197C161.894 85.6128 159.025 84.6362 156.441 83.1509C153.877 81.686 151.599 79.6718 149.686 77.1285C147.753 74.6056 146.41 71.8995 145.637 69.0308C144.884 66.1416 147.367 57.8201 147.753 54.7275L152.372 20.1188C152.799 17.0059 153.755 14.1371 155.22 11.5531C156.685 8.98951 158.699 6.71075 161.243 4.79822C163.766 2.86534 166.472 1.5225 169.34 0.749348C172.189 -0.00345641 175.22 -0.206917 178.354 0.22035L194.386 2.35669L194.447 2.41773ZM67.2845 110.089C67.7728 106.04 55.7686 90.5772 53.5712 83.1713C48.8713 75.7043 47.2029 63.8222 52.3301 55.9279C54.3647 52.7946 53.4898 47.2198 53.4898 42.8861C53.4898 -0.0848427 128.791 -0.105186 128.791 42.8861C128.791 48.3185 127.55 52.4487 130.479 56.7417C135.403 63.8832 132.88 76.5588 128.709 83.1916C126.044 90.9842 113.45 105.694 114.325 110.109C115.118 132.165 67.142 131.432 67.2845 110.089ZM125.739 122.968C134.996 128.889 148.119 133.752 158.618 137.251C179.229 144.108 179.167 145.064 179.025 174.383H106.186L125.739 122.968Z" fill="white"/>
</g>
<defs>
<clipPath id="clip0_1_47">
<rect width="250" height="175" fill="white"/>
</clipPath>
</defs>
</svg>
