<svg width="325" height="464" viewBox="0 0 325 464" fill="none" xmlns="http://www.w3.org/2000/svg">
<g clip-path="url(#clip0_4_14)">
<path d="M87.8797 142.047H236.77C244.489 142.047 250.735 135.801 250.735 128.082V121.082C250.735 113.363 244.504 107.117 236.77 107.117H87.8797C80.1609 107.117 73.8958 113.363 73.8958 121.082V128.066C73.8997 135.801 80.1613 142.046 87.8797 142.046V142.047Z" fill="white"/>
<path d="M231.16 89.617C240.156 70.316 252.246 37.082 250.762 0C250.762 0 220.61 39.602 162.336 0C104.063 39.602 73.9096 0 73.9096 0C72.4213 37.082 84.5147 70.332 93.5117 89.617H231.16Z" fill="white"/>
<path d="M301.23 281.767C268.015 235.165 242.394 185.22 230.058 159.547H94.6477C82.3117 185.219 56.6907 235.164 23.4757 281.767C-23.8833 348.126 -9.91934 463.397 162.336 463.397C334.591 463.397 348.556 348.127 301.236 281.767H301.23ZM207.097 381.552C198.8 389.603 187.531 394.361 173.269 395.833V418.845H154.773V395.939C140.3 394.47 128.332 389.341 118.863 380.541C109.394 371.756 104.828 358.822 105.144 341.779L105.39 341.201H138.519C138.519 351.596 140.917 359.033 145.659 363.513C150.437 367.993 156.491 370.251 163.858 370.251C170.909 370.251 176.299 368.38 180.081 364.614C183.843 360.853 185.699 355.794 185.699 349.442C185.699 343.177 183.898 338.067 180.308 334.114C176.702 330.161 170.507 326.486 161.757 323.071C144.554 316.79 131.78 309.805 123.448 302.087C115.1 294.388 110.952 283.521 110.952 269.485C110.952 256.465 115.1 245.79 123.448 237.462C131.796 229.134 142.995 224.251 157.12 222.763V197.775H175.6V223.009C189.233 225.021 199.959 230.709 207.764 240.087C215.533 249.466 219.35 261.63 219.19 276.591L218.838 277.17H185.674C185.674 268.033 183.819 260.982 180.057 256.014C176.276 251.045 171.167 248.576 164.659 248.576C157.991 248.576 153.038 250.502 149.768 254.334C146.514 258.166 144.885 263.26 144.885 269.611C144.885 275.666 146.62 280.549 150.065 284.31C153.514 288.072 159.866 291.763 169.053 295.404C186.201 302.158 198.889 309.353 207.151 317.033C215.393 324.697 219.522 335.424 219.522 349.232C219.538 362.724 215.374 373.502 207.096 381.552H207.097Z" fill="white"/>
</g>
<defs>
<clipPath id="clip0_4_14">
<rect width="325" height="464" fill="white"/>
</clipPath>
</defs>
</svg>
