<svg width="519" height="619" viewBox="0 0 519 619" fill="none" xmlns="http://www.w3.org/2000/svg">
<g clip-path="url(#clip0_1_49)">
<path d="M376.565 145.398C376.565 225.703 312.572 290.795 233.62 290.795C154.679 290.795 90.6755 225.703 90.6755 145.398C90.6755 65.1018 154.679 0 233.62 0C312.572 0 376.565 65.1018 376.565 145.398Z" fill="white"/>
<path d="M327.964 326.636L263.641 489.479L249.342 371.708H257.918C263.632 371.708 267.929 367.348 267.929 361.526V329.538C267.929 323.727 263.641 319.356 257.918 319.356H206.457C200.744 319.356 196.446 323.717 196.446 329.538V361.526C196.446 367.337 200.734 371.708 206.457 371.708H215.033L200.734 489.479L136.412 326.636C72.089 342.63 22.0532 396.423 13.4791 466.222L0.61639 550.554C-3.67119 576.72 14.9149 599.986 40.6409 599.986C132.126 604.347 327.959 604.347 419.445 599.986C445.169 598.536 463.755 575.27 459.469 550.554L446.607 466.222C443.755 396.434 392.295 342.63 327.97 326.636H327.964Z" fill="white"/>
<path d="M514.684 530.65C514.684 577.023 477.731 614.61 432.14 614.61C386.556 614.61 349.597 577.023 349.597 530.65C349.597 484.283 386.556 446.69 432.14 446.69C477.731 446.69 514.684 484.283 514.684 530.65Z" fill="white"/>
<path d="M507.131 530.65C507.131 572.78 473.56 606.927 432.14 606.927C390.727 606.927 357.15 572.78 357.15 530.65C357.15 488.526 390.727 454.373 432.14 454.373C473.56 454.373 507.131 488.526 507.131 530.65Z" fill="white"/>
<path d="M444.385 541.128C444.385 546.431 440.213 550.674 435 550.674H427.961C422.748 550.674 418.576 546.431 418.576 541.128V540.597C409.713 540.067 399.806 539.271 390.681 537.945V564.461C390.681 569.233 394.331 572.947 399.025 572.947H463.936C468.628 572.947 472.279 569.235 472.279 564.461V537.945C463.154 539.535 453.25 540.331 444.647 540.597V541.128H444.385Z" fill="white"/>
<path d="M469.932 505.861H451.423V499.497C451.423 492.868 445.947 487.298 439.43 487.298H424.05C417.533 487.298 412.057 492.868 412.057 499.497V505.861H393.547C388.855 505.861 385.204 509.573 385.204 514.347V527.605C385.204 528.931 385.986 529.991 387.029 529.991C395.372 531.582 405.8 532.908 419.094 533.44C419.094 528.136 423.266 523.893 428.479 523.893H435.262C440.475 523.893 444.647 528.136 444.647 533.44C457.681 532.908 468.37 531.582 476.451 529.727C477.493 529.462 478.276 528.401 478.276 527.341V514.083C478.275 509.84 474.365 505.861 469.931 505.861H469.932ZM441.779 505.861H421.185V499.497C421.185 498.17 422.228 496.844 423.793 496.844H439.173C440.478 496.844 441.781 497.904 441.781 499.497L441.779 505.861Z" fill="white"/>
<path d="M435 543.779C436.564 543.779 437.608 542.454 437.608 541.127V533.968C437.608 532.376 436.304 531.315 435 531.315H427.961C426.397 531.315 425.353 532.641 425.353 533.968V541.127C425.353 542.718 426.657 543.779 427.961 543.779H435Z" fill="white"/>
</g>
<defs>
<clipPath id="clip0_1_49">
<rect width="519" height="619" fill="white"/>
</clipPath>
</defs>
</svg>
