<svg width="488" height="480" viewBox="0 0 488 480" fill="none" xmlns="http://www.w3.org/2000/svg">
<path d="M457.14 270.38V210.11C457.14 200.462 449.277 192.61 439.64 192.61H299.68C283.254 192.61 267.235 198.43 254.621 208.977C248.461 214.145 239.512 214.121 233.375 208.977C220.75 198.43 204.746 192.61 188.309 192.61H48.3591C38.7107 192.61 30.8591 200.462 30.8591 210.11V270.38C48.2541 273.54 61.6131 290.435 61.6131 310.876C61.6131 331.341 48.2541 348.196 30.8591 351.372V441.673C30.8591 451.31 38.7107 459.173 48.3591 459.173H188.289C207.492 459.173 226.137 465.939 240.859 478.271C242.644 479.775 245.328 479.798 247.125 478.271C261.836 465.939 280.504 459.173 299.684 459.173H439.614C449.262 459.173 457.114 451.31 457.114 441.673V351.372C439.731 348.224 426.36 331.341 426.36 310.876C426.371 290.423 439.727 273.544 457.145 270.38H457.14ZM249.82 446.92C249.82 450.127 247.207 452.752 243.988 452.752C240.781 452.752 238.156 450.127 238.156 446.92V245.32C238.156 242.101 240.781 239.488 243.988 239.488C247.207 239.488 249.82 242.101 249.82 245.32V446.92Z" fill="white"/>
<path d="M328.48 85.09C328.48 38.492 290.574 0.60199 243.992 0.60199C197.406 0.60199 159.504 38.497 159.504 85.09C159.504 131.664 197.41 169.578 243.992 169.578C290.578 169.578 328.48 131.664 328.48 85.09Z" fill="white"/>
<path d="M49.94 310.86C49.94 327.141 38.788 340.34 25.03 340.34C11.276 340.34 0.124023 327.141 0.124023 310.86C0.124023 294.579 11.276 281.38 25.03 281.38C38.788 281.38 49.94 294.579 49.94 310.86Z" fill="white"/>
<path d="M462.97 340.36C449.216 340.36 438.036 327.118 438.036 310.88C438.036 294.642 449.212 281.4 462.97 281.4C476.689 281.4 487.88 294.642 487.88 310.88C487.876 327.118 476.677 340.36 462.97 340.36Z" fill="white"/>
</svg>
