<svg width="534" height="492" viewBox="0 0 534 492" fill="none" xmlns="http://www.w3.org/2000/svg">
<path d="M0 72.9985L28.0578 343.834C100.652 339.947 173.243 351.61 246.294 380.119V114.032C156.774 81.6358 75.272 69.5409 0.00203486 72.9966L0 72.9985Z" fill="white"/>
<path d="M61.0202 49.6758C121.145 53.5634 183.057 66.5216 246.294 88.552V75.5933C185.724 32.8299 117.132 3.45666 58.3531 0.000991821L61.0202 49.6758Z" fill="white"/>
<path d="M398.157 267.819C407.51 262.204 418.199 259.612 427.552 257.885L433.787 256.589C435.568 256.157 437.35 255.725 439.577 255.725C436.014 241.902 428.442 228.512 418.199 216.849C408.401 205.618 395.04 197.842 380.788 190.067C373.662 185.748 366.09 181.86 358.964 176.677C332.688 158.966 316.209 131.753 312.2 99.3569C297.057 103.677 281.915 108.86 266.772 114.475V380.996C299.285 368.037 331.796 358.534 364.308 352.487C364.308 351.623 364.753 350.327 364.753 349.463L366.089 337.801C367.871 322.25 369.652 304.972 378.114 289.421C383.013 280.35 389.693 273.007 398.156 267.823L398.157 267.819Z" fill="white"/>
<path d="M373.217 156.803C379.452 161.123 386.133 165.011 393.259 168.898C408.401 177.538 424.435 186.609 436.905 200.863C451.157 217.278 460.955 235.42 464.963 254.859C468.526 255.291 471.643 255.723 475.206 256.154L477.432 256.586C481.886 257.45 487.675 258.314 493.912 260.474L513.508 72.5745C458.282 69.9827 399.493 76.0302 336.256 92.0131C338.928 119.658 351.843 142.553 373.221 156.807L373.217 156.803Z" fill="white"/>
<path d="M454.716 0C396.374 3.45567 327.784 32.8289 266.776 76.0247V88.9835C330.018 66.9541 391.927 53.5629 452.049 50.1072L454.716 0Z" fill="white"/>
<path d="M528.653 351.18C525.981 333.038 525.981 312.735 517.074 295.889C508.612 279.906 491.242 275.155 473.872 272.132C473.427 272.132 472.981 272.132 472.091 271.7C464.074 270.404 455.611 269.108 447.596 269.972C444.033 270.404 440.915 270.836 437.353 271.7C435.126 272.132 432.899 272.564 431.118 272.996C422.656 274.724 414.194 276.884 406.623 281.203C400.388 284.659 395.934 289.842 392.817 295.89C383.909 312.736 383.909 332.607 381.237 351.18C378.12 372.778 376.338 393.944 376.338 415.543C376.338 458.306 411.522 489.407 455.169 492C498.815 489.408 534 458.307 534 415.543C533.555 394.376 531.773 372.779 528.656 351.18H528.653ZM472.092 357.227C471.646 365.435 464.966 370.618 453.831 371.05C444.478 371.482 437.352 367.162 437.352 359.388C437.352 351.18 436.906 342.973 437.352 335.198C437.352 327.423 437.797 319.215 438.243 311.441C438.688 303.234 447.595 298.051 456.948 298.913C466.301 299.776 471.2 304.097 472.091 313.169V314.464V335.199C472.536 342.542 472.536 349.885 472.091 357.228L472.092 357.227Z" fill="white"/>
</svg>
