<svg width="525" height="525" viewBox="0 0 525 525" fill="none" xmlns="http://www.w3.org/2000/svg">
<g clip-path="url(#clip0_1_3)">
<path d="M122.499 140H402.499C408.132 139.973 413.405 137.238 416.675 132.648C419.972 128.098 420.886 122.238 419.125 116.898L384.125 11.8984C382.949 8.42574 380.714 5.40624 377.73 3.26954C374.746 1.13284 371.168 -0.00776014 367.5 3.98611e-05H157.5C153.832 -0.00777214 150.254 1.13284 147.27 3.26954C144.286 5.40624 142.051 8.42574 140.876 11.8984L105.876 116.898C104.114 122.238 105.028 128.097 108.325 132.648C111.594 137.238 116.868 139.973 122.501 140H122.499Z" fill="white"/>
<path d="M227.499 385H297.499C303.753 385 309.53 381.664 312.655 376.25C315.78 370.836 315.78 364.164 312.655 358.75C309.53 353.336 303.753 350 297.499 350H227.499C221.245 350 215.468 353.336 212.343 358.75C209.218 364.164 209.218 370.836 212.343 376.25C215.468 381.664 221.246 385 227.499 385Z" fill="white"/>
<path d="M472.499 70H421.925L435.749 111.477C439.292 122.153 437.488 133.879 430.902 142.997C424.316 152.114 413.75 157.513 402.5 157.501V262.501C402.5 271.782 398.812 280.685 392.25 287.251C385.683 293.814 376.781 297.501 367.5 297.501H157.5C148.218 297.501 139.316 293.814 132.75 287.251C126.187 280.685 122.5 271.782 122.5 262.501V157.501C111.25 157.513 100.684 152.114 94.0977 142.997C87.5118 133.88 85.7071 122.153 89.25 111.477L103.074 70H52.5C38.574 70 25.223 75.5312 15.375 85.375C5.5312 95.2227 0 108.574 0 122.5V402.5C0 416.426 5.5312 429.777 15.375 439.625C25.2227 449.469 38.574 455 52.5 455H140V490H87.5C81.2461 490 75.469 493.336 72.344 498.75C69.219 504.164 69.219 510.836 72.344 516.25C75.469 521.664 81.2463 525 87.5 525H437.5C443.754 525 449.531 521.664 452.656 516.25C455.781 510.836 455.781 504.164 452.656 498.75C449.531 493.336 443.754 490 437.5 490H385V455H472.5C486.426 455 499.777 449.469 509.625 439.625C519.469 429.777 525 416.426 525 402.5V122.5C525 108.574 519.469 95.223 509.625 85.375C499.777 75.5312 486.426 70 472.5 70H472.499ZM227.499 315H297.499C316.257 315 333.589 325.008 342.964 341.25C352.343 357.492 352.343 377.508 342.964 393.75C333.589 409.992 316.257 420 297.499 420H227.499C208.741 420 191.409 409.992 182.034 393.75C172.655 377.508 172.655 357.492 182.034 341.25C191.409 325.008 208.741 315 227.499 315ZM349.999 490H174.999V455H349.999V490Z" fill="white"/>
<path d="M367.499 280C372.14 280 376.593 278.156 379.874 274.875C383.156 271.594 384.999 267.141 384.999 262.5V175H139.999V262.5C139.999 267.141 141.843 271.594 145.124 274.875C148.406 278.156 152.859 280 157.499 280H218.749V227.5C218.749 222.859 220.593 218.406 223.874 215.125C227.156 211.844 231.609 210 236.249 210H288.749C293.39 210 297.843 211.844 301.124 215.125C304.406 218.406 306.249 222.859 306.249 227.5V280H367.499Z" fill="white"/>
<path d="M253.749 245H271.249V280H253.749V245Z" fill="white"/>
</g>
<defs>
<clipPath id="clip0_1_3">
<rect width="525" height="525" fill="white"/>
</clipPath>
</defs>
</svg>
