<svg width="532" height="507" viewBox="0 0 532 507" fill="none" xmlns="http://www.w3.org/2000/svg">
<g clip-path="url(#clip0_1_9)">
<path d="M439.6 301.6H441.28C449.12 278.639 453.6 253.44 453.6 227.678C453.6 102.798 352.24 0.87793 226.8 0.87793C101.36 0.87793 -0.000305176 102.798 -0.000305176 227.678C-0.000305176 352.558 101.92 454.478 226.8 454.478C263.198 454.478 296.8 446.08 327.6 430.958C327.041 425.356 326.479 419.759 326.479 414.72C326.479 351.997 376.877 301.6 439.599 301.6H439.6ZM246.4 340.237V368.796C246.4 371.597 244.162 374.398 240.798 374.398H212.798C209.998 374.398 207.197 372.159 207.197 368.796V340.796C179.197 339.116 156.236 317.276 153.435 289.276C152.876 285.917 155.673 283.116 159.036 283.116H187.036C189.275 283.116 191.517 284.795 192.076 287.038C193.755 295.999 201.595 302.159 210.556 302.159H235.197C249.756 302.159 262.638 291.518 264.318 276.96C265.997 260.722 253.118 246.722 236.876 246.722H218.954C184.236 246.722 153.434 221.523 149.513 186.8C145.592 150.402 172.474 119.038 206.634 114.562V86.5616C206.634 83.7608 208.873 80.96 212.236 80.96H240.236C243.037 80.96 245.838 83.1983 245.838 86.5616V114.562C274.397 116.241 297.358 138.082 300.158 166.082C300.158 169.441 297.919 172.242 294.556 172.242H266.556C264.318 172.242 261.517 170.562 261.517 168.32C259.837 159.359 251.997 153.199 242.478 153.199H217.837C203.278 153.199 189.837 163.84 188.716 178.398C187.036 194.636 199.915 209.199 216.157 209.199H237.438C276.079 209.199 307.438 242.801 303.516 282C300.719 312.238 276.078 335.199 246.399 340.238L246.4 340.237Z" fill="white"/>
<path d="M439.6 321.76C388.639 321.76 347.202 363.201 347.202 414.158C347.202 465.119 388.643 506.556 439.6 506.556C490.561 506.556 531.998 465.115 531.998 414.158C531.998 363.197 490.557 321.76 439.6 321.76Z" fill="white"/>
<path d="M386.591 443.627L456.855 353.269L467.994 361.932L397.731 452.29L386.591 443.627Z" fill="white"/>
<path d="M412.608 469.499L482.854 379.13L494 387.793L423.754 478.162L412.608 469.499Z" fill="white"/>
</g>
<defs>
<clipPath id="clip0_1_9">
<rect width="532" height="507" fill="white"/>
</clipPath>
</defs>
</svg>
