<svg width="251" height="300" viewBox="0 0 251 300" fill="none" xmlns="http://www.w3.org/2000/svg">
<path d="M65.1552 206.36C64.3031 205.751 63.4814 205.112 62.6293 204.473C63.451 205.112 64.2726 205.751 65.0943 206.39C57.5168 200.516 50.7 193.7 44.7957 186.122C45.4348 186.944 46.0739 187.765 46.713 188.587C40.718 180.827 35.727 172.306 31.8923 163.267C32.288 164.241 32.714 165.215 33.1096 166.189C29.2752 157.059 26.6884 147.473 25.3496 137.674C25.5017 138.739 25.6539 139.835 25.7756 140.9C24.4366 130.796 24.4366 120.541 25.7756 110.437C25.6234 111.502 25.4713 112.598 25.3496 113.663C26.6885 103.742 29.3666 94.0645 33.2315 84.8437C32.8359 85.8175 32.4098 86.7913 32.0142 87.7652C35.7878 78.9094 40.6874 70.5405 46.561 62.9018C45.922 63.7235 45.2829 64.5451 44.6438 65.3668C50.5781 57.698 57.4862 50.7899 65.155 44.8556C64.3333 45.4947 63.5117 46.1338 62.69 46.7729C70.3287 40.8993 78.667 36 87.5533 32.226C86.5795 32.6216 85.6057 33.0477 84.6318 33.4433C93.8526 29.548 103.53 26.9003 113.451 25.5614C112.386 25.7135 111.291 25.8657 110.225 25.9874C120.329 24.6484 130.554 24.6484 140.658 25.9874C139.593 25.8353 138.497 25.6831 137.432 25.5614C147.353 26.9004 157.031 29.5785 166.251 33.4433C165.278 33.0477 164.304 32.6216 163.33 32.226C172.186 35.9996 180.555 40.8993 188.193 46.7729C187.372 46.1338 186.55 45.4947 185.728 44.8556C193.397 50.7899 200.305 57.698 206.239 65.3668C205.6 64.5451 204.961 63.7235 204.322 62.9018C210.196 70.5405 215.095 78.8788 218.869 87.7652C218.473 86.7913 218.047 85.8175 217.652 84.8437C221.547 94.0645 224.195 103.742 225.534 113.663C225.382 112.598 225.229 111.502 225.108 110.437C226.447 120.541 226.447 130.796 225.108 140.9C225.26 139.835 225.412 138.739 225.534 137.674C224.195 147.473 221.578 157.059 217.774 166.189C218.169 165.215 218.595 164.241 218.991 163.267C215.156 172.306 210.196 180.827 204.17 188.587C204.809 187.765 205.448 186.944 206.088 186.122C200.184 193.7 193.367 200.516 185.789 206.39C186.611 205.751 187.432 205.112 188.254 204.473C187.432 205.112 186.58 205.751 185.728 206.36C183.08 208.277 181.041 210.377 180.129 213.633C179.338 216.554 179.703 220.419 181.346 223.006C183.02 225.593 185.515 227.906 188.619 228.605C191.632 229.275 195.405 229.275 197.993 227.388C215.461 214.606 229.977 197.869 238.894 178.058C247.962 157.911 252.162 135.635 249.819 113.573C247.719 93.8226 241.45 74.6803 230.555 57.9732C219.934 41.6618 205.662 27.815 188.894 17.9242C171.7 7.75958 152.192 2.03845 132.289 0.851483C112.021 -0.365809 91.9053 3.80342 73.4303 12.02C56.662 19.5062 41.3544 31.1922 29.6684 45.3741C17.1605 60.5597 7.90908 78.3325 3.58804 97.6261C-1.12898 118.685 -0.581194 140.992 5.68785 161.688C11.9872 182.503 23.795 201.767 39.6808 216.649C43.8196 220.544 48.2934 224.074 52.8882 227.452C55.2923 229.217 59.5225 229.43 62.2615 228.669C65.0917 227.878 68.1351 225.717 69.5346 223.07C71.0258 220.24 71.7866 216.831 70.7519 213.697C70.3563 212.723 69.9302 211.749 69.5346 210.775C68.439 208.888 66.9783 207.428 65.1524 206.363L65.1552 206.36Z" fill="white"/>
<path d="M181.225 189.348C192.181 179.823 200.184 167.437 205.115 153.834C210.075 140.139 210.775 125.349 208.432 111.076C204.445 86.7912 188.437 64.7887 167.104 52.7076C155.632 46.2257 142.85 42.6042 129.734 41.8435C116.374 41.0522 103.258 43.8825 91.0241 49.1472C68.4128 58.855 51.0056 79.4579 44.28 103.012C40.4151 116.555 40.1717 131.01 43.1541 144.765C46.2277 158.947 53.4099 172.155 63.087 182.928C65.126 185.21 67.3476 187.34 69.6602 189.379C72.1252 191.51 74.9249 192.94 78.2727 192.94C81.2551 192.94 84.8158 191.601 86.8853 189.379C89.0156 187.066 90.5981 184.023 90.4459 180.767C90.2937 177.663 89.2895 174.254 86.8853 172.154C83.1726 168.928 79.7947 165.368 76.7819 161.473C77.421 162.294 78.0601 163.116 78.6992 163.938C74.956 159.008 71.8217 153.652 69.4171 147.961C69.8128 148.934 70.2388 149.908 70.6344 150.882C68.1998 145.039 66.5261 138.922 65.6739 132.653C65.8261 133.718 65.9783 134.814 66.1 135.879C65.2479 129.397 65.2479 122.854 66.1 116.402C65.9478 117.467 65.7957 118.563 65.6739 119.628C66.526 113.359 68.1998 107.273 70.6344 101.43C70.2388 102.403 69.8127 103.377 69.4171 104.351C71.8822 98.5387 75.047 93.0913 78.9117 88.1003C78.2727 88.922 77.6336 89.7436 76.9945 90.5653C80.7681 85.7266 85.0896 81.3746 89.9281 77.6317C89.1064 78.2708 88.2848 78.9099 87.4631 79.5489C92.454 75.7145 97.9015 72.519 103.714 70.0543C102.74 70.4499 101.766 70.876 100.792 71.2716C106.635 68.837 112.722 67.1937 118.991 66.3111C117.926 66.4633 116.83 66.6155 115.765 66.7372C122.217 65.8851 128.76 65.8851 135.211 66.7372C134.146 66.585 133.05 66.4329 131.985 66.3111C138.255 67.1632 144.341 68.837 150.184 71.2716C149.21 70.876 148.236 70.4499 147.262 70.0543C153.075 72.5193 158.522 75.6842 163.513 79.5489C162.691 78.9099 161.87 78.2708 161.048 77.6317C165.887 81.4053 170.239 85.7268 173.982 90.5653C173.343 89.7436 172.703 88.922 172.064 88.1003C175.899 93.0912 179.094 98.5387 181.559 104.351C181.163 103.377 180.737 102.403 180.342 101.43C182.776 107.273 184.42 113.359 185.302 119.628C185.15 118.563 184.998 117.467 184.876 116.402C185.728 122.884 185.728 129.427 184.876 135.879C185.028 134.814 185.18 133.718 185.302 132.653C184.42 138.922 182.776 145.039 180.342 150.882C180.737 149.908 181.163 148.934 181.559 147.961C179.124 153.652 176.02 159.008 172.277 163.938C172.916 163.116 173.555 162.294 174.194 161.473C171.181 165.368 167.804 168.928 164.091 172.154C161.839 174.102 160.53 177.845 160.53 180.767C160.53 183.749 161.869 187.31 164.091 189.379C166.404 191.51 169.447 193.092 172.703 192.94C175.96 192.757 178.668 191.57 181.224 189.349L181.225 189.348Z" fill="white"/>
<path d="M159.406 125.62C159.406 144.395 144.187 159.613 125.413 159.613C106.638 159.613 91.4198 144.395 91.4198 125.62C91.4198 106.846 106.638 91.6275 125.413 91.6275C144.187 91.6275 159.406 106.846 159.406 125.62Z" fill="white"/>
<path d="M150.274 125.62C150.274 127.173 150.152 128.725 149.969 130.277C150.091 129.455 150.183 128.664 150.304 127.842C149.878 130.824 149.087 133.746 147.9 136.515C148.204 135.785 148.509 135.055 148.813 134.324C147.961 136.302 146.957 138.189 145.739 139.954C145.435 140.41 145.131 140.837 144.826 141.263C143.944 142.48 146.439 139.285 145.009 140.989C144.37 141.75 143.7 142.48 143.001 143.18C142.301 143.88 141.57 144.549 140.809 145.188C139.105 146.619 142.331 144.123 141.083 145.006C140.657 145.31 140.231 145.645 139.775 145.919C137.979 147.106 136.092 148.14 134.145 148.992L136.336 148.079C133.536 149.236 130.645 150.058 127.663 150.484C128.484 150.362 129.276 150.271 130.097 150.149C126.993 150.544 123.889 150.544 120.785 150.149C121.607 150.271 122.398 150.362 123.22 150.484C120.237 150.058 117.316 149.266 114.547 148.079L116.738 148.992C114.76 148.14 112.873 147.136 111.108 145.919C110.651 145.614 110.225 145.31 109.799 145.006C108.582 144.123 111.777 146.619 110.073 145.188C109.312 144.549 108.582 143.88 107.882 143.18C107.182 142.48 106.512 141.75 105.873 140.989C104.443 139.285 106.939 142.51 106.056 141.263C105.752 140.837 105.417 140.411 105.143 139.954C103.956 138.158 102.921 136.272 102.069 134.324C102.374 135.055 102.678 135.785 102.982 136.515C101.826 133.716 101.004 130.824 100.578 127.842C100.7 128.664 100.791 129.455 100.913 130.277C100.517 127.173 100.517 124.069 100.913 120.965C100.791 121.786 100.7 122.577 100.578 123.399C101.004 120.417 101.795 117.495 102.982 114.726C102.678 115.456 102.374 116.187 102.069 116.917C102.921 114.939 103.926 113.052 105.143 111.287C105.447 110.831 105.752 110.405 106.056 109.979C106.938 108.761 104.443 111.957 105.873 110.252C106.512 109.492 107.182 108.761 107.882 108.061C108.582 107.361 109.312 106.692 110.073 106.053C111.777 104.622 108.551 107.118 109.799 106.235C110.225 105.931 110.651 105.596 111.108 105.322C112.903 104.136 114.79 103.101 116.738 102.249L114.547 103.162C117.346 102.005 120.238 101.184 123.22 100.758C122.398 100.879 121.607 100.971 120.785 101.092C123.889 100.697 126.993 100.697 130.097 101.092C129.276 100.971 128.484 100.879 127.663 100.758C130.645 101.184 133.566 101.975 136.336 103.162L134.145 102.249C136.123 103.101 138.01 104.105 139.775 105.322C140.231 105.627 140.657 105.931 141.083 106.235C142.301 107.118 139.105 104.622 140.809 106.053C141.57 106.692 142.301 107.361 143.001 108.061C143.7 108.761 144.37 109.492 145.009 110.252C146.439 111.957 143.944 108.731 144.826 109.979C145.131 110.405 145.466 110.831 145.739 111.287C146.926 113.083 147.961 114.969 148.813 116.917C148.509 116.187 148.204 115.456 147.9 114.726C149.057 117.526 149.878 120.417 150.304 123.399C150.183 122.577 150.091 121.786 149.969 120.965C150.183 122.517 150.274 124.069 150.274 125.621C150.304 130.399 154.443 134.963 159.403 134.75C164.333 134.537 168.564 130.733 168.533 125.621C168.472 117.039 165.946 108.214 160.925 101.214C155.508 93.6367 148.387 88.1587 139.622 84.9028C123.402 78.8772 103.56 84.2333 92.6045 97.6232C86.6096 104.958 83.1099 113.387 82.3486 122.852C81.6487 131.434 83.9311 140.503 88.4048 147.836C92.7261 154.958 99.2388 161.105 106.877 164.543C115.672 168.5 125.015 169.656 134.509 167.769C151.065 164.452 165.185 150.058 167.772 133.32C168.167 130.764 168.502 128.207 168.502 125.621C168.532 120.843 164.272 116.278 159.372 116.491C154.442 116.704 150.304 120.508 150.273 125.621L150.274 125.62Z" fill="white"/>
<path d="M127.631 290.321H123.188C111.197 290.321 101.398 280.522 101.398 268.531V212.355C101.398 200.365 111.197 190.566 123.188 190.566H127.631C139.621 190.566 149.42 200.365 149.42 212.355V268.531C149.451 280.522 139.621 290.321 127.631 290.321Z" fill="white"/>
<path d="M127.631 281.195C125.166 281.195 122.67 281.316 120.236 280.982C121.058 281.103 121.849 281.195 122.67 281.316C120.753 281.042 118.927 280.525 117.162 279.795L119.353 280.708C118.136 280.16 116.949 279.551 115.823 278.79C115.549 278.608 115.275 278.395 115.001 278.212C114.21 277.725 116.888 279.825 115.732 278.79C115.245 278.334 114.728 277.908 114.271 277.451C113.784 276.964 113.358 276.478 112.932 275.991C112.08 275.047 113.632 276.904 113.632 276.904C113.541 276.904 113.145 276.204 113.054 276.082C112.263 274.926 111.593 273.678 111.045 272.369L111.958 274.56C111.228 272.795 110.71 270.939 110.437 269.052C110.558 269.874 110.65 270.665 110.771 271.487C110.437 268.93 110.558 266.283 110.558 263.696V250.002V218.504C110.558 215.491 110.376 212.387 110.771 209.404C110.65 210.226 110.558 211.017 110.437 211.839C110.71 209.922 111.228 208.096 111.958 206.331L111.045 208.522C111.593 207.305 112.202 206.118 112.962 204.992C113.145 204.718 113.358 204.444 113.541 204.17C114.028 203.379 111.928 206.057 112.962 204.9C113.419 204.414 113.845 203.896 114.301 203.44C114.788 202.953 115.275 202.527 115.762 202.101C116.706 201.249 114.849 202.801 114.849 202.801C114.849 202.709 115.549 202.314 115.671 202.222C116.827 201.431 118.075 200.762 119.384 200.214C118.653 200.518 117.923 200.823 117.193 201.127C118.958 200.396 120.814 199.879 122.701 199.605C121.879 199.727 121.088 199.818 120.266 199.94C123.583 199.514 127.296 199.514 130.613 199.94C129.792 199.818 129 199.727 128.179 199.605C130.096 199.879 131.922 200.396 133.687 201.127C132.957 200.823 132.226 200.518 131.496 200.214C132.713 200.762 133.9 201.37 135.026 202.131C135.3 202.314 135.574 202.527 135.848 202.709C136.639 203.196 133.961 201.096 135.117 202.131C135.604 202.588 136.122 203.014 136.578 203.47C137.065 203.957 137.491 204.444 137.917 204.931C138.769 205.874 137.217 204.018 137.217 204.018C137.308 204.018 137.704 204.718 137.795 204.84C138.587 205.996 139.256 207.244 139.804 208.552C139.5 207.822 139.195 207.092 138.891 206.361C139.621 208.126 140.139 209.983 140.413 211.869C140.291 211.048 140.2 210.257 140.078 209.435C140.413 211.991 140.291 214.639 140.291 217.226V230.92V262.418C140.291 265.43 140.473 268.534 140.078 271.517C140.2 270.695 140.291 269.904 140.413 269.082C140.139 271 139.621 272.826 138.891 274.591C139.195 273.86 139.5 273.13 139.804 272.4C139.256 273.617 138.648 274.804 137.887 275.93C137.704 276.204 137.491 276.478 137.308 276.751C136.822 277.543 138.921 274.865 137.887 276.021C137.43 276.508 137.004 277.025 136.548 277.482C136.061 277.969 135.574 278.395 135.087 278.821C134.144 279.673 136 278.121 136 278.121C136 278.212 135.3 278.608 135.178 278.699C134.022 279.49 132.774 280.16 131.465 280.708L133.657 279.795C131.892 280.525 130.035 281.042 128.148 281.316C128.97 281.195 129.761 281.103 130.583 280.982C129.609 281.134 128.635 281.195 127.631 281.195C122.853 281.255 118.288 285.364 118.501 290.324C118.715 295.224 122.519 299.515 127.631 299.454C136 299.362 144.308 295.954 150.029 289.807C155.446 283.994 158.489 276.447 158.55 268.504C158.58 263.239 158.55 257.974 158.55 252.71V225.26C158.55 220.056 158.976 214.608 158.337 209.435C157.211 200.214 152.707 192.514 145.19 187.006C139.378 182.745 132.439 181.437 125.379 181.437C118.379 181.437 111.532 182.715 105.719 186.884C99.0544 191.662 94.0027 198.753 92.7551 207C91.8421 212.995 92.2377 219.203 92.2377 225.259V252.435C92.2377 257.791 92.2073 263.147 92.2377 268.503C92.2986 276.354 95.281 283.689 100.485 289.532C106.084 295.77 114.423 299.301 122.731 299.483C124.344 299.514 125.987 299.483 127.6 299.483C132.378 299.483 136.943 295.284 136.73 290.354C136.547 285.363 132.743 281.194 127.63 281.194L127.631 281.195Z" fill="white"/>
</svg>
