<svg width="471" height="538" viewBox="0 0 471 538" fill="none" xmlns="http://www.w3.org/2000/svg">
<g clip-path="url(#clip0_2_2)">
<path d="M346.25 118.06C346.25 183.15 293.48 235.92 228.39 235.92C163.3 235.92 110.53 183.154 110.53 118.06C110.53 52.966 163.296 0.200012 228.39 0.200012C293.48 0.200012 346.25 52.966 346.25 118.06Z" fill="white"/>
<path d="M129.37 261.16C120.604 261.777 112.1 262.797 103.89 264.207L250.46 537.807H277.573L129.37 261.16Z" fill="white"/>
<path d="M200.78 537.8H227.893L83.723 268.7C75.7191 270.938 68.11 273.645 60.996 276.899L200.78 537.8Z" fill="white"/>
<path d="M56.5199 279.06C22.3249 296.287 0.398926 326.587 0.398926 374.736V537.796H195.129L56.5199 279.06Z" fill="white"/>
<path d="M317.59 260.51L294.617 260.494L249.308 346.369L245.941 308.197H210.836L207.468 346.365L162.101 260.388L151.954 260.384C146.164 260.384 140.457 260.541 134.828 260.834L283.229 537.794H470.808V376.884C470.808 298.634 409.156 260.504 317.598 260.504L317.59 260.51Z" fill="white"/>
<path d="M245.94 297L252.608 257.801H204.163L210.835 297H245.94Z" fill="white"/>
</g>
<defs>
<clipPath id="clip0_2_2">
<rect width="471" height="538" fill="white"/>
</clipPath>
</defs>
</svg>
