<svg width="434" height="383" viewBox="0 0 434 383" fill="none" xmlns="http://www.w3.org/2000/svg">
<path d="M396.2 152.18V201.957L404.911 376.177H379.399L388.11 203.197V151.552C387.489 151.552 387.489 150.931 386.864 150.306C373.798 138.486 328.997 89.3289 378.774 15.2859C378.774 15.2859 383.75 7.82109 390.594 5.95389H391.84H393.086C399.93 7.82109 404.906 15.2859 404.906 15.2859C454.062 86.8409 412.371 135.996 398.062 149.066C397.445 150.933 396.82 151.554 396.199 152.179L396.2 152.18Z" fill="black"/>
<path d="M404.91 382.4H379.398C377.531 382.4 376.289 381.779 375.043 380.533C373.797 379.287 373.175 377.423 373.175 376.177L381.886 203.197V154.662C371.929 145.33 320.284 91.1973 373.796 12.7923C374.418 11.5462 380.64 3.46029 388.731 0.97229H390.598H392.465H394.332C403.043 3.46059 408.644 11.5503 409.266 12.7923C460.289 86.8353 417.356 138.482 403.665 152.172C403.665 152.793 403.043 154.039 403.043 154.661V202.571L411.754 376.171C411.754 378.038 411.133 379.28 409.887 380.526C408.024 381.772 406.157 382.393 404.911 382.393L404.91 382.4ZM385.621 369.959H398.066L391.843 239.289L385.621 369.959ZM393.09 149.689L396.199 152.177L393.09 149.689ZM391.223 12.799C388.113 14.0451 385 17.1545 383.758 19.6428C335.223 91.1978 381.27 137.863 390.602 145.953L391.223 146.574C391.844 145.953 391.844 145.328 392.469 144.707C401.801 135.996 446.602 89.3277 398.07 19.0167C397.445 17.7706 394.332 14.0362 391.223 12.794L391.223 12.799Z" fill="black"/>
<path d="M27.8399 132.27L28.461 142.848L37.1719 353.778C37.1719 353.778 34.0625 366.223 28.461 373.067C27.2149 374.313 25.9727 375.555 24.1055 376.176C22.8594 375.555 20.9961 374.309 19.75 373.067C14.1484 366.223 11.0391 353.778 11.0391 353.778L19.75 142.848V132.895C15.3945 132.274 8.55104 129.161 6.68404 117.961C4.19574 100.539 6.68404 86.8519 6.68404 86.8519H39.661C39.661 86.8519 42.1493 101.164 39.661 117.961C39.0399 127.914 32.1962 131.027 27.841 132.27L27.8399 132.27Z" fill="black"/>
<path d="M24.11 382.4C23.4889 382.4 22.2428 382.4 21.6217 381.779C19.1334 380.533 17.2662 379.291 15.399 376.802C9.17628 369.337 5.44198 356.892 5.44198 355.025V353.158L14.774 135.998C9.79738 133.51 3.57498 128.533 2.32898 117.33C-0.780423 99.2871 2.32898 84.3531 2.32898 83.7281C2.95007 80.6187 5.43838 78.7515 8.55168 78.7515H41.5287C44.6381 78.7515 47.1303 80.6187 47.7514 83.7281C47.7514 84.3492 50.8608 99.2831 47.7514 117.33C45.8842 128.529 40.2866 133.51 35.3064 135.998L44.6384 353.158V355.025C44.0173 356.271 40.904 369.337 34.6814 376.802C32.8142 379.291 30.947 380.537 28.4587 381.779C25.9782 382.4 24.736 382.4 24.111 382.4H24.11ZM17.2662 353.158C18.5123 356.892 21.0006 363.736 24.11 368.092C27.2194 363.737 29.7116 356.272 30.9538 353.158L24.11 193.248L17.2662 353.158ZM12.9107 91.818C12.2896 96.7946 12.2896 106.13 13.5318 115.463C14.7779 121.065 17.2662 124.795 21.6216 125.42C22.8677 125.42 23.4888 126.041 24.1099 126.666C24.731 126.045 25.9771 126.045 26.5982 125.42C30.9537 124.799 33.442 121.064 34.688 115.463C36.5552 105.506 35.9341 96.795 35.3091 91.818H12.9107Z" fill="black"/>
<path d="M4.19997 112.36C2.33277 112.36 1.09058 110.493 1.09058 109.251L6.69217 6.58059C6.69217 4.71339 7.93827 3.47119 9.80157 3.47119C11.6688 3.47119 12.911 5.33839 12.911 6.58059L7.30937 109.251C7.31328 111.114 6.06717 112.36 4.19997 112.36Z" fill="black"/>
<path d="M30.3299 104.27C28.4627 104.27 27.2205 103.024 27.2205 101.161L25.3533 6.58261C25.3533 4.71541 26.5994 3.47321 28.4627 3.47321C30.3299 3.47321 31.5721 4.71931 31.5721 6.58261L33.4393 101.161C33.4432 102.403 32.1971 104.27 30.3299 104.27Z" fill="black"/>
<path d="M18.51 108.62C16.6428 108.62 15.4006 107.374 15.4006 105.511L16.6467 6.57659C16.6467 4.70939 17.8928 3.46719 19.7561 3.46719C21.6233 3.46719 22.8655 4.71329 22.8655 6.57659L21.6194 105.511C21.6194 107.378 20.3772 108.62 18.51 108.62Z" fill="black"/>
<path d="M44.0201 108.62C42.1529 108.62 40.9107 107.374 40.9107 105.511L35.9341 6.57659C35.9341 4.70939 37.1802 3.46719 39.0435 3.46719C40.9107 3.46719 42.1529 4.71329 42.1529 6.57659L47.1295 105.511C47.1295 107.378 45.8873 108.62 44.0201 108.62Z" fill="black"/>
<path d="M204.55 297.78C146.062 297.78 98.1499 249.87 98.1499 191.38C98.1499 132.892 146.06 84.98 204.55 84.98C263.038 84.98 310.95 132.89 310.95 191.38C310.954 249.868 263.04 297.78 204.55 297.78Z" fill="black"/>
<path d="M204.52 47.6831C124.876 47.6831 60.7869 111.772 60.7869 191.416C60.7869 271.06 124.876 335.149 204.52 335.149C284.164 335.149 348.253 271.06 348.253 191.416C348.253 111.778 283.542 47.6831 204.52 47.6831ZM204.52 314.616C136.698 314.616 81.3202 259.237 81.3202 191.416C81.3202 123.595 136.699 68.2164 204.52 68.2164C272.342 68.2164 327.719 123.595 327.719 191.416C327.719 259.237 272.344 314.616 204.52 314.616Z" fill="black" stroke="black" stroke-width="12.4444" stroke-miterlimit="10" stroke-linecap="round" stroke-linejoin="round"/>
<path d="M204.55 297.78C146.062 297.78 98.1499 249.87 98.1499 191.38C98.1499 132.892 146.06 84.98 204.55 84.98C263.038 84.98 310.95 132.89 310.95 191.38C310.954 249.868 263.04 297.78 204.55 297.78Z" fill="black"/>
<path d="M204.55 302.75C142.948 302.75 93.1699 252.973 93.1699 191.37C93.1699 129.767 142.947 79.99 204.55 79.99C266.152 79.99 315.93 129.767 315.93 191.37C315.93 252.973 266.153 302.75 204.55 302.75Z" fill="black"/>
</svg>
