<svg width="440" height="454" viewBox="0 0 440 454" fill="none" xmlns="http://www.w3.org/2000/svg">
<g clip-path="url(#clip0_1_21)">
<path d="M365.388 292.736C369.858 292.736 374.226 293.182 378.519 293.836C377.107 292.535 376.187 291.836 376.187 291.836C365.312 267.712 298.933 246.805 298.933 246.805C274.152 238.09 266.605 229.378 264.295 224.924C264.034 224.384 263.83 223.903 263.656 223.484V223.295C263.656 223.295 263.508 222.743 263.277 221.918V221.896C262.316 218.443 259.961 209.69 259.961 207.505C259.961 207.505 259.848 208.208 259.575 209.429C259.397 207.282 259.341 205.021 259.462 202.582C259.462 202.582 259.273 202.805 258.898 203.206C267.142 192.675 273.804 180.629 278.232 168.366C285.791 160.83 289.648 142.489 289.648 142.489C294.667 128.461 293.187 121.288 290.889 117.669C291.601 115.544 303.641 78.337 286.62 49.6492C286.62 49.6492 280.601 22.5198 248.602 10.4656C219.033 -7.62391 174.963 3.22843 174.963 3.22843C121.26 12.2691 109.753 75.388 109.753 75.388C106.551 104.207 114.28 122.233 114.606 122.97C111.854 129.787 116.847 147.627 116.847 147.627C118.557 158.517 123.894 161.845 125.443 162.593C129.175 176.118 135.632 189.295 143.755 200.744C143.702 200.692 143.641 200.642 143.588 200.571C143.588 200.571 144.485 204.998 143.66 211.196C143.539 210.561 143.482 210.186 143.482 210.186C143.482 212.724 140.405 221.953 140.007 223.159C139.973 223.25 139.947 223.273 139.916 223.348C137.422 226.645 134.939 229.689 132.471 232.461C112.46 247.922 64.3775 262.487 64.3775 262.487C43.4532 270.503 34.6035 282.569 34.6035 282.569C3.62595 328.397 0 374.167 0 374.167C0.401219 397.486 10.4621 399.894 10.4621 399.894C81.6827 431.625 195.006 433.497 195.006 433.497C231.657 434.284 264.924 431.599 293.271 427.622C283.99 413.87 278.565 397.293 278.565 379.469C278.565 331.649 317.518 292.736 365.388 292.736Z" fill="white"/>
<path d="M396 310.914C387.587 307.743 376.117 303.964 364.575 303.964C361.105 303.964 357.742 304.306 354.57 304.989C343.238 306.814 327.695 311.213 316.055 322.358C307.63 329.724 297.042 341.659 293.19 357.651C288.703 371.593 288.703 386.391 293.052 399.861C297.02 416.312 307.62 428.237 315.821 435.433C327.641 446.738 343.195 451.169 354.198 452.909C369.497 456.25 384.988 451.244 396.33 446.952C407.768 441.945 418.569 432.561 428.106 419.207C434.907 408.735 438.865 395.358 440 378.544C438.844 362.616 434.886 349.239 427.958 338.553C418.568 325.422 407.756 316.059 396 310.915V310.914Z" fill="white"/>
<path d="M373.223 374.087C367.542 368.412 361.857 362.742 356.17 357.078C355.819 356.787 355.672 356.316 355.795 355.877C356.711 351.598 355.985 347.131 353.762 343.361C351.539 339.591 347.981 336.79 343.791 335.514C340.606 334.544 337.212 334.486 333.995 335.345C334.547 335.87 334.966 336.235 335.357 336.636C337.504 338.797 339.757 340.87 341.751 343.165H341.752C343.13 344.843 343.827 346.977 343.707 349.145C343.586 351.312 342.657 353.356 341.102 354.872C339.558 356.395 337.506 357.293 335.339 357.395C333.172 357.497 331.044 356.795 329.364 355.423C328.038 354.293 326.844 353.004 325.606 351.767C324.368 350.53 323.033 349.098 321.688 347.746C321.026 349.967 320.85 352.302 321.172 354.596C321.79 359.439 324.408 363.804 328.392 366.632C332.375 369.461 337.361 370.496 342.143 369.488C342.595 369.348 343.088 369.487 343.399 369.844C347.822 374.304 352.275 378.752 356.757 383.188L394.159 420.551C395.825 422.369 398.162 423.429 400.629 423.485C403.095 423.541 405.478 422.588 407.225 420.846C408.971 419.106 409.93 416.727 409.879 414.263C409.828 411.799 408.772 409.462 406.956 407.794C395.729 396.544 384.485 385.308 373.223 374.088V374.087ZM400.572 419.358C399.199 419.358 397.883 418.814 396.913 417.844C395.943 416.874 395.398 415.56 395.398 414.189C395.398 412.819 395.943 411.504 396.913 410.534C397.883 409.565 399.199 409.021 400.572 409.021C401.944 409.021 403.26 409.565 404.23 410.534C405.201 411.504 405.745 412.819 405.745 414.189C405.745 415.56 405.201 416.874 404.23 417.844C403.26 418.814 401.944 419.358 400.572 419.358Z" fill="white"/>
<path d="M376.508 372.201C382.92 365.79 389.335 359.388 395.753 352.996C396.294 352.459 396.912 352.006 397.588 351.652C400.339 350.374 402.733 348.44 404.56 346.021C406.056 343.895 407.659 341.858 409.218 339.794C409.432 339.501 409.627 339.198 409.788 338.958L405.425 334.51C403.412 336.004 401.479 337.534 399.449 338.958C396.382 341.034 393.955 343.924 392.441 347.302C392.292 347.613 392.09 347.896 391.844 348.138C386.661 353.298 381.472 358.478 376.278 363.679C374.666 365.29 373.045 366.873 371.478 368.421L375.93 372.931V372.932C376.106 372.675 376.299 372.431 376.509 372.202L376.508 372.201Z" fill="white"/>
<path d="M361.067 391.301L352.634 382.876L350.666 380.848L349.268 382.289C340.642 390.907 332.033 399.524 323.443 408.14C321.548 409.809 320.438 412.193 320.381 414.715C320.324 417.237 321.325 419.669 323.142 421.421C324.958 423.174 327.426 424.088 329.947 423.943C332.469 423.798 334.814 422.606 336.418 420.657C344.32 412.787 352.213 404.905 360.098 397.011C361.219 395.89 362.369 394.805 363.482 393.728L361.068 391.309L361.067 391.301Z" fill="white"/>
</g>
<defs>
<clipPath id="clip0_1_21">
<rect width="440" height="454" fill="white"/>
</clipPath>
</defs>
</svg>
