<svg width="250" height="203" viewBox="0 0 250 203" fill="none" xmlns="http://www.w3.org/2000/svg">
<path d="M75.8711 160.763C76.8736 161.765 78.5452 166.111 84.8958 172.462C106.955 194.521 143.052 194.521 165.11 172.462C200.538 137.035 175.807 75.5363 125.004 75.5363C81.2206 75.5363 54.1476 122.996 75.8723 160.764L75.8711 160.763ZM37.7693 62.1661V6.68393C37.7693 3.00732 40.7768 0 44.4533 0H205.55C209.227 0 212.234 3.0075 212.234 6.68393V62.1661H243.316C246.993 62.1661 250 64.8402 250 68.85V195.856C250 199.533 246.993 202.54 243.316 202.54H6.68392C3.00731 202.54 0 199.532 0 195.856V68.85C0 64.84 3.00749 62.1661 6.68392 62.1661H37.7693ZM51.1372 13.3679V62.1661H63.503V13.3679H51.1372ZM186.499 13.3679V62.1661H198.865V13.3679H186.499ZM236.633 171.791H182.822C178.477 178.475 172.795 184.492 166.111 189.171H236.633V171.791ZM67.1801 171.791H13.3696V189.171H83.8914C77.2075 184.492 71.5256 178.475 67.1801 171.791Z" fill="white"/>
<path d="M148.398 108.624C127.677 87.9021 91.9133 102.609 91.9133 132.355C91.9133 161.767 127.677 176.474 148.398 155.75C161.433 142.715 161.433 121.658 148.398 108.624ZM125.003 82.2208C169.455 82.2208 191.848 136.031 160.43 167.783C129.012 199.201 74.8684 176.807 74.8684 132.355C74.8684 104.615 97.2616 82.2214 125.002 82.2214L125.003 82.2208Z" fill="white"/>
<path d="M142.716 114.64C127.008 98.5973 99.9354 109.961 99.9354 132.354C99.9354 154.413 127.007 165.776 142.716 150.068C152.408 140.04 152.408 124.332 142.716 114.64Z" fill="white"/>
</svg>
