<svg width="517" height="508" viewBox="0 0 517 508" fill="none" xmlns="http://www.w3.org/2000/svg">
<path d="M315.001 140.002C315.001 135.174 311.079 131.252 306.251 131.252H227.501V157.502H315.001V140.002Z" fill="black"/>
<path d="M332.501 140.002V157.502L350.001 131.252H358.751L376.251 157.502H385.001L402.501 131.252H411.251L428.751 157.502H437.501L455.001 131.252H463.751L481.251 157.502H490.001L516.251 122.502L490.001 87.502H227.501V113.752H306.251C320.724 113.752 332.501 125.529 332.501 140.002Z" fill="black"/>
<path d="M33.5912 243.672L75.6812 210H209.031C209.613 207.129 210 204.227 210 201.25V43.75C210 19.625 190.375 0 166.25 0H43.75C19.625 0 0 19.625 0 43.75V201.25C0 221.586 14.027 239.008 33.59 243.672H33.5912ZM39.3764 84.222C39.3764 71.55 49.6734 61.253 62.3454 61.253H77.6575C90.3295 61.253 100.626 71.55 100.626 84.222V160.784C100.626 173.456 90.3295 183.753 77.6575 183.753H62.3454C49.6734 183.753 39.3764 173.456 39.3764 160.784V84.222Z" fill="black"/>
<path d="M192.501 402.502H262.501V455.002H192.501V402.502Z" fill="black"/>
<path d="M52.5012 402.502H122.501V455.002H52.5012V402.502Z" fill="black"/>
<path d="M402.501 367.502C373.548 367.502 350.001 391.049 350.001 420.002V507.502H367.501V402.502H437.501V507.502H455.001V420.002C455.001 391.049 431.454 367.502 402.501 367.502Z" fill="black"/>
<path d="M385.001 420.002H420.001V507.502H385.001V420.002Z" fill="black"/>
<path d="M408.051 211.982C404.918 209.42 400.055 209.427 396.981 211.955L300.704 290.732C296.978 293.786 296.415 299.298 299.462 303.025C302.403 306.63 308.142 307.216 311.81 304.259L402.505 230.052L493.224 304.271C496.829 307.22 502.579 306.615 505.517 303.037C508.579 299.302 508.021 293.771 504.275 290.709L408.051 211.982Z" fill="black"/>
<path d="M402.501 252.662L322.86 317.822C320.497 319.74 317.802 321.06 315.001 321.994V507.494H332.501V419.994C332.501 381.396 363.903 349.994 402.501 349.994C441.099 349.994 472.501 381.396 472.501 419.994V507.494H490.001V322.224C487.165 321.216 484.505 319.739 482.153 317.814L402.501 252.662Z" fill="black"/>
<path d="M17.5012 507.502H297.501V350.002H17.5012V507.502ZM175.001 385.002H280.001V472.502H175.001V385.002ZM35.0012 385.002H140.001V472.502H35.0012V385.002Z" fill="black"/>
<path d="M289.631 277.192L350.358 227.501H81.8282L16.2032 280.001H262.503V297.501H0.00317383V332.501H297.503V321.923C293.05 320.407 288.964 317.837 285.925 314.11C276.773 302.926 278.421 286.372 289.628 277.192L289.631 277.192Z" fill="black"/>
</svg>
