<svg width="25" height="25" viewBox="0 0 25 25" fill="none" xmlns="http://www.w3.org/2000/svg">
<g clip-path="url(#clip0)">
<path d="M0.286427 11.8087C0.286718 11.8084 0.286963 11.8081 0.287304 11.8078L5.39004 6.72968C5.77231 6.34926 6.39062 6.35068 6.77114 6.733C7.15161 7.11528 7.15015 7.73359 6.76787 8.11406L3.34189 11.5234H24.0234C24.5628 11.5234 25 11.9606 25 12.5C25 13.0394 24.5628 13.4766 24.0234 13.4766H3.34194L6.76782 16.8859C7.1501 17.2664 7.15156 17.8847 6.77109 18.267C6.39058 18.6494 5.77222 18.6507 5.38999 18.2703L0.287256 13.1922C0.286963 13.1919 0.286718 13.1915 0.286377 13.1913C-0.0960941 12.8095 -0.0948734 12.1892 0.286427 11.8087Z" fill="black"/>
</g>
<defs>
<clipPath id="clip0">
<rect width="25" height="25" fill="white" transform="matrix(-1 0 0 1 25 0)"/>
</clipPath>
</defs>
</svg>
