<svg width="67" height="66" viewBox="0 0 67 66" fill="none" xmlns="http://www.w3.org/2000/svg">
<circle cx="33.31" cy="32.8022" r="32.8022" fill="#1976D2"/>
<g clip-path="url(#clip0)">
<path d="M50.4707 21.5024H33.8676C33.2129 21.5024 32.6816 22.0337 32.6816 22.6883C32.6816 23.343 33.2129 23.8743 33.8676 23.8743H47.0149L39.7285 29.5407L34.5032 26.2177L33.2319 28.2196L39.1616 31.9908C39.3537 32.1142 39.5767 32.1758 39.7973 32.1758C40.0534 32.1758 40.312 32.0928 40.5254 31.9268L49.2848 25.1124V40.4774H33.8676C33.2129 40.4774 32.6816 41.0087 32.6816 41.6633C32.6816 42.318 33.2129 42.8493 33.8676 42.8493H50.4707C51.1253 42.8493 51.6566 42.318 51.6566 41.6633V22.6883C51.6566 22.0337 51.1253 21.5024 50.4707 21.5024Z" fill="white"/>
<path d="M34.6246 14.6595C34.3542 14.4342 33.9913 14.337 33.6498 14.4081L14.6748 17.9659C14.1126 18.0703 13.707 18.5589 13.707 19.1305V45.2211C13.707 45.7904 14.1126 46.2814 14.6748 46.3857L33.6498 49.9435C33.7209 49.9578 33.7944 49.9649 33.868 49.9649C34.1431 49.9649 34.4111 49.87 34.6246 49.6921C34.8974 49.4668 35.0539 49.13 35.0539 48.7789V15.5727C35.0539 15.2193 34.8974 14.8849 34.6246 14.6595Z" fill="white"/>
<path d="M24.3809 40.4774C21.1124 40.4774 18.4512 37.2848 18.4512 33.3618C18.4512 29.4387 21.1124 26.2461 24.3809 26.2461C27.6493 26.2461 30.3105 29.4387 30.3105 33.3618C30.3105 37.2848 27.6493 40.4774 24.3809 40.4774ZM24.3809 28.618C22.4193 28.618 20.823 30.7456 20.823 33.3618C20.823 35.9779 22.4193 38.1055 24.3809 38.1055C26.3424 38.1055 27.9387 35.9779 27.9387 33.3618C27.9387 30.7456 26.3424 28.618 24.3809 28.618Z" fill="#1976D2"/>
</g>
<defs>
<clipPath id="clip0">
<rect width="37.95" height="37.95" fill="white" transform="translate(13.707 13.2)"/>
</clipPath>
</defs>
</svg>
