<svg width="512" height="512" viewBox="0 0 512 512" fill="none" xmlns="http://www.w3.org/2000/svg">
<path d="M256 512C397.385 512 512 397.385 512 256C512 114.615 397.385 0 256 0C114.615 0 0 114.615 0 256C0 397.385 114.615 512 256 512Z" fill="#FF4020"/>
<path d="M256 256.442C221.381 256.442 191.256 282.193 186.043 315.774C185.063 320.144 184.941 324.315 184.941 327.471C184.941 366.636 216.819 398.5 256 398.5C295.181 398.5 327.059 366.636 327.059 327.471C327.059 324.315 326.938 320.144 326.07 316.338C320.744 282.193 290.619 256.442 256 256.442ZM288.927 324.87L253.397 360.384C251.662 362.118 249.39 362.985 247.117 362.985C244.844 362.985 242.572 362.118 240.837 360.384L223.072 342.627C219.602 339.159 219.602 333.541 223.072 330.072C226.542 326.604 232.163 326.604 235.632 330.072L247.117 341.551L276.366 312.314C279.836 308.846 285.457 308.846 288.926 312.314C292.397 315.783 292.397 321.402 288.927 324.87V324.87ZM105 127.7V317.708C105 322.616 108.973 326.587 113.882 326.587H167.209C167.233 322.608 167.436 317.563 168.712 311.89C175.07 270.653 212.69 238.685 256 238.685C254.126 238.685 252.253 238.095 250.674 236.907L105 127.7ZM396.344 113.5H115.656L256 218.708L396.344 113.5ZM261.326 236.907C259.747 238.095 257.874 238.685 256 238.685C299.293 238.685 336.965 270.896 343.626 313.598C344.606 317.736 344.774 322.843 344.796 326.587H398.117C403.027 326.587 406.999 322.616 406.999 317.708V127.7L261.326 236.907Z" fill="white"/>
</svg>
