<svg width="67" height="66" viewBox="0 0 67 66" fill="none" xmlns="http://www.w3.org/2000/svg">
<g clip-path="url(#clip0)">
<path d="M33.5077 0C51.7341 0 66.5078 14.7757 66.5078 33.0001C66.5078 51.2265 51.7341 66 33.5077 66C15.2813 66 0.507812 51.2263 0.507812 33.0001C0.507812 14.7757 15.2815 0 33.5077 0Z" fill="#720E9E"/>
<path d="M48.6176 26.0494L48.6527 26.0433L49.7458 24.8264L49.6921 24.8224L49.8077 24.6409H34.4937L35.0836 26.7363H39.2622L32.229 33.2434C30.7935 31.1501 27.4296 26.3382 25.0825 22.7288H29.4446V21.2437L29.5044 20.8168L29.4446 20.8087V20.6354H12.8848V22.7288H18.0636C20.0745 24.389 28.7928 34.9739 29.1105 35.9845C29.2382 36.9313 29.4199 42.5186 29.0445 42.9393C28.5928 43.5891 23.8759 43.2384 23.0447 43.3002L23.0136 45.3524C24.5315 45.3977 29.0855 45.3503 30.6223 45.3503C33.65 45.3503 38.9527 45.272 39.6992 45.3318L39.7921 43.3888L33.6975 43.298C33.5698 42.4174 33.4295 36.8588 33.5573 36.2525C34.1327 34.4933 43.4841 27.2125 44.4453 26.9384L45.3509 26.7343H48.1765C48.1763 26.734 48.6176 26.0494 48.6176 26.0494ZM46.3323 40.5714L48.9805 40.7735L52.068 29.4504C51.5524 29.4319 46.8686 29.0132 46.2601 28.8997L46.3323 40.5714ZM45.8745 42.3865L45.889 45.1523L47.2295 45.2638L48.6774 45.3648L49.1022 42.6589L47.5759 42.5886C47.5761 42.5886 45.8745 42.3865 45.8745 42.3865Z" fill="white"/>
</g>
<defs>
<clipPath id="clip0">
<rect width="66" height="66" fill="white" transform="translate(0.507812)"/>
</clipPath>
</defs>
</svg>
