<svg width="766" height="292" viewBox="0 0 766 292" fill="none" xmlns="http://www.w3.org/2000/svg">
<path d="M22.528 23.244C23.8773 25.5747 25.38 28.4267 27.036 31.8C28.692 35.1733 30.3787 38.7307 32.096 42.472C33.8133 46.152 35.5 49.924 37.156 53.788C38.8733 57.5907 40.4373 61.1173 41.848 64.368C43.2587 61.1173 44.792 57.5907 46.448 53.788C48.104 49.924 49.7907 46.152 51.508 42.472C53.2253 38.7307 54.912 35.1733 56.568 31.8C58.224 28.4267 59.7267 25.5747 61.076 23.244H71.564C72.116 27.9053 72.6373 32.8733 73.128 38.148C73.6187 43.3613 74.048 48.728 74.416 54.248C74.8453 59.7067 75.2133 65.2267 75.52 70.808C75.888 76.328 76.1947 81.7253 76.44 87H65.032C64.7867 79.5787 64.48 71.9427 64.112 64.092C63.8053 56.2413 63.3147 48.636 62.64 41.276C61.9653 42.6867 61.168 44.3733 60.248 46.336C59.328 48.2987 58.3467 50.4453 57.304 52.776C56.2613 55.0453 55.188 57.4067 54.084 59.86C53.0413 62.3133 51.9987 64.7053 50.956 67.036C49.9747 69.3053 49.0547 71.452 48.196 73.476C47.3373 75.4387 46.6013 77.1253 45.988 78.536H37.34C36.7267 77.1253 35.9907 75.408 35.132 73.384C34.2733 71.36 33.3227 69.2133 32.28 66.944C31.2987 64.6133 30.256 62.2213 29.152 59.768C28.1093 57.3147 27.0667 54.9533 26.024 52.684C24.9813 50.4147 24 48.2987 23.08 46.336C22.16 44.312 21.3627 42.6253 20.688 41.276C20.0133 48.636 19.492 56.2413 19.124 64.092C18.8173 71.9427 18.5413 79.5787 18.296 87H6.888C7.13333 81.7253 7.40933 76.2667 7.716 70.624C8.084 64.9813 8.452 59.4 8.82 53.88C9.24933 48.2987 9.70933 42.9013 10.2 37.688C10.6907 32.4747 11.212 27.66 11.764 23.244H22.528ZM110.662 51.488C113.422 46.888 116.121 42.2267 118.758 37.504C121.395 32.7813 123.787 28.028 125.934 23.244H138.814C135.379 29.7453 131.791 36.216 128.05 42.656C124.37 49.0347 120.414 55.4747 116.182 61.976V87H104.59V62.16C100.358 55.5973 96.3712 49.096 92.6298 42.656C88.8885 36.216 85.3005 29.7453 81.8658 23.244H95.4818C97.6285 28.028 99.9898 32.7813 102.566 37.504C105.142 42.2267 107.841 46.888 110.662 51.488ZM212.635 23.244V33.272H193.039V87H181.355V33.272H161.759V23.244H212.635ZM239.048 22.6C248.248 22.6 255.271 24.2867 260.116 27.66C265.023 31.0333 267.476 36.1853 267.476 43.116C267.476 51.764 263.213 57.6213 254.688 60.688C255.853 62.0987 257.172 63.816 258.644 65.84C260.116 67.864 261.619 70.072 263.152 72.464C264.685 74.7947 266.157 77.2173 267.568 79.732C268.979 82.1853 270.236 84.608 271.34 87H258.368C257.203 84.792 255.945 82.584 254.596 80.376C253.247 78.1067 251.867 75.9293 250.456 73.844C249.107 71.6973 247.757 69.704 246.408 67.864C245.059 65.9627 243.801 64.276 242.636 62.804C241.777 62.8653 241.041 62.896 240.428 62.896C239.815 62.896 239.232 62.896 238.68 62.896H233.068V87H221.476V24.164C224.297 23.5507 227.303 23.152 230.492 22.968C233.681 22.7227 236.533 22.6 239.048 22.6ZM239.876 32.628C237.423 32.628 235.153 32.72 233.068 32.904V53.512H238.128C240.949 53.512 243.433 53.3587 245.58 53.052C247.727 52.7453 249.505 52.1933 250.916 51.396C252.388 50.5987 253.492 49.5253 254.228 48.176C254.964 46.8267 255.332 45.1093 255.332 43.024C255.332 41.0613 254.964 39.4053 254.228 38.056C253.492 36.7067 252.419 35.6333 251.008 34.836C249.659 34.0387 248.033 33.4867 246.132 33.18C244.231 32.812 242.145 32.628 239.876 32.628ZM280.324 87V23.244H321.263V33.088H291.916V48.82H318.044V58.48H291.916V77.156H323.472V87H280.324ZM377.194 87C375.108 83.504 372.778 79.7627 370.202 75.776C367.626 71.728 364.958 67.68 362.198 63.632C359.438 59.5227 356.616 55.5667 353.734 51.764C350.912 47.9 348.214 44.4347 345.638 41.368V87H334.23V23.244H343.706C346.159 25.82 348.796 28.8867 351.618 32.444C354.439 35.94 357.26 39.5893 360.082 43.392C362.964 47.1947 365.724 51.028 368.362 54.892C371.06 58.6947 373.452 62.252 375.538 65.564V23.244H387.038V87H377.194ZM413.923 77.432C414.598 77.4933 415.487 77.5547 416.591 77.616C417.695 77.616 419.198 77.616 421.099 77.616C428.889 77.616 434.685 75.6533 438.487 71.728C442.351 67.7413 444.283 62.1907 444.283 55.076C444.283 47.8387 442.413 42.288 438.671 38.424C434.93 34.56 429.134 32.628 421.283 32.628C417.849 32.628 415.395 32.72 413.923 32.904V77.432ZM456.427 55.076C456.427 60.596 455.569 65.4107 453.851 69.52C452.134 73.568 449.681 76.972 446.491 79.732C443.363 82.4307 439.561 84.4547 435.083 85.804C430.667 87.092 425.761 87.736 420.363 87.736C417.787 87.736 414.874 87.6133 411.623 87.368C408.373 87.184 405.275 86.7547 402.331 86.08V24.164C405.275 23.4893 408.403 23.06 411.715 22.876C415.027 22.692 417.971 22.6 420.547 22.6C425.883 22.6 430.759 23.244 435.175 24.532C439.591 25.7587 443.363 27.7213 446.491 30.42C449.681 33.0573 452.134 36.4307 453.851 40.54C455.569 44.588 456.427 49.4333 456.427 55.076ZM469.085 23.244H480.677V87H469.085V23.244ZM538.913 87C536.827 83.504 534.497 79.7627 531.921 75.776C529.345 71.728 526.677 67.68 523.917 63.632C521.157 59.5227 518.335 55.5667 515.453 51.764C512.631 47.9 509.933 44.4347 507.357 41.368V87H495.949V23.244H505.425C507.878 25.82 510.515 28.8867 513.337 32.444C516.158 35.94 518.979 39.5893 521.801 43.392C524.683 47.1947 527.443 51.028 530.081 54.892C532.779 58.6947 535.171 62.252 537.257 65.564V23.244H548.757V87H538.913ZM593.858 31.984C587.295 31.984 582.266 34.0387 578.77 38.148C575.335 42.196 573.618 47.8387 573.618 55.076C573.618 58.5107 574.017 61.6693 574.814 64.552C575.673 67.3733 576.899 69.796 578.494 71.82C580.15 73.844 582.174 75.4387 584.566 76.604C587.019 77.708 589.871 78.26 593.122 78.26C595.146 78.26 596.894 78.1987 598.366 78.076C599.838 77.892 601.003 77.6773 601.862 77.432V54.524H613.454V85.16C611.859 85.7733 609.161 86.448 605.358 87.184C601.555 87.92 597.17 88.288 592.202 88.288C587.602 88.288 583.401 87.552 579.598 86.08C575.795 84.608 572.545 82.4613 569.846 79.64C567.209 76.8187 565.154 73.3533 563.682 69.244C562.21 65.1347 561.474 60.412 561.474 55.076C561.474 49.74 562.271 45.0173 563.866 40.908C565.522 36.7987 567.761 33.3333 570.582 30.512C573.403 27.6293 576.715 25.452 580.518 23.98C584.321 22.508 588.369 21.772 592.662 21.772C595.606 21.772 598.213 21.9867 600.482 22.416C602.813 22.784 604.806 23.2133 606.462 23.704C608.118 24.1947 609.467 24.716 610.51 25.268C611.614 25.82 612.381 26.2187 612.81 26.464L609.314 35.94C607.474 34.836 605.174 33.916 602.414 33.18C599.715 32.3827 596.863 31.984 593.858 31.984Z" fill="#FB491B"/>
<path d="M50.034 232.866C54.126 232.866 57.474 232.556 60.078 231.936C62.806 231.192 64.976 230.262 66.588 229.146C68.2 227.906 69.316 226.48 69.936 224.868C70.556 223.256 70.866 221.458 70.866 219.474C70.866 215.258 68.882 211.786 64.914 209.058C60.946 206.206 54.126 203.168 44.454 199.944C40.238 198.456 36.022 196.782 31.806 194.922C27.59 192.938 23.808 190.52 20.46 187.668C17.112 184.692 14.384 181.158 12.276 177.066C10.168 172.85 9.114 167.766 9.114 161.814C9.114 155.862 10.23 150.53 12.462 145.818C14.694 140.982 17.856 136.89 21.948 133.542C26.04 130.194 31 127.652 36.828 125.916C42.656 124.056 49.228 123.126 56.544 123.126C65.224 123.126 72.726 124.056 79.05 125.916C85.374 127.776 90.582 129.822 94.674 132.054L86.304 154.932C82.708 153.072 78.678 151.46 74.214 150.096C69.874 148.608 64.604 147.864 58.404 147.864C51.46 147.864 46.438 148.856 43.338 150.84C40.362 152.7 38.874 155.614 38.874 159.582C38.874 161.938 39.432 163.922 40.548 165.534C41.664 167.146 43.214 168.634 45.198 169.998C47.306 171.238 49.662 172.416 52.266 173.532C54.994 174.524 57.97 175.578 61.194 176.694C67.89 179.174 73.718 181.654 78.678 184.134C83.638 186.49 87.73 189.28 90.954 192.504C94.302 195.728 96.782 199.51 98.394 203.85C100.006 208.19 100.812 213.46 100.812 219.66C100.812 231.688 96.596 241.05 88.164 247.746C79.732 254.318 67.022 257.604 50.034 257.604C44.33 257.604 39.184 257.232 34.596 256.488C30.008 255.868 25.916 255.062 22.32 254.07C18.848 253.078 15.81 252.024 13.206 250.908C10.726 249.792 8.618 248.738 6.882 247.746L15.066 224.682C18.91 226.79 23.622 228.712 29.202 230.448C34.906 232.06 41.85 232.866 50.034 232.866ZM215.109 126.102V150.84H176.235V255H147.219V150.84H108.345V126.102H215.109ZM253.764 190.458C253.764 196.782 254.508 202.486 255.996 207.57C257.608 212.654 259.84 217.056 262.692 220.776C265.668 224.372 269.264 227.162 273.48 229.146C277.696 231.13 282.532 232.122 287.988 232.122C293.32 232.122 298.094 231.13 302.31 229.146C306.65 227.162 310.246 224.372 313.098 220.776C316.074 217.056 318.306 212.654 319.794 207.57C321.406 202.486 322.212 196.782 322.212 190.458C322.212 184.134 321.406 178.43 319.794 173.346C318.306 168.138 316.074 163.736 313.098 160.14C310.246 156.42 306.65 153.568 302.31 151.584C298.094 149.6 293.32 148.608 287.988 148.608C282.532 148.608 277.696 149.662 273.48 151.77C269.264 153.754 265.668 156.606 262.692 160.326C259.84 163.922 257.608 168.324 255.996 173.532C254.508 178.616 253.764 184.258 253.764 190.458ZM352.158 190.458C352.158 201.494 350.484 211.228 347.136 219.66C343.912 227.968 339.448 234.974 333.744 240.678C328.04 246.258 321.22 250.474 313.284 253.326C305.472 256.178 297.04 257.604 287.988 257.604C279.184 257.604 270.876 256.178 263.064 253.326C255.252 250.474 248.432 246.258 242.604 240.678C236.776 234.974 232.188 227.968 228.84 219.66C225.492 211.228 223.818 201.494 223.818 190.458C223.818 179.422 225.554 169.75 229.026 161.442C232.498 153.01 237.148 145.942 242.976 140.238C248.928 134.534 255.748 130.256 263.436 127.404C271.248 124.552 279.432 123.126 287.988 123.126C296.792 123.126 305.1 124.552 312.912 127.404C320.724 130.256 327.544 134.534 333.372 140.238C339.2 145.942 343.788 153.01 347.136 161.442C350.484 169.75 352.158 179.422 352.158 190.458ZM414.103 124.614C433.447 124.614 448.265 128.086 458.557 135.03C468.849 141.85 473.995 152.514 473.995 167.022C473.995 176.074 471.887 183.452 467.671 189.156C463.579 194.736 457.627 199.138 449.815 202.362C452.419 205.586 455.147 209.306 457.999 213.522C460.851 217.614 463.641 221.954 466.369 226.542C469.221 231.006 471.949 235.718 474.553 240.678C477.157 245.514 479.575 250.288 481.807 255H449.257C446.901 250.784 444.483 246.506 442.003 242.166C439.647 237.826 437.167 233.61 434.563 229.518C432.083 225.426 429.603 221.582 427.123 217.986C424.643 214.266 422.163 210.918 419.683 207.942H405.361V255H376.345V127.962C382.669 126.722 389.179 125.854 395.875 125.358C402.695 124.862 408.771 124.614 414.103 124.614ZM415.777 149.352C413.669 149.352 411.747 149.414 410.011 149.538C408.399 149.662 406.849 149.786 405.361 149.91V184.878H413.545C424.457 184.878 432.269 183.514 436.981 180.786C441.693 178.058 444.049 173.408 444.049 166.836C444.049 160.512 441.631 156.048 436.795 153.444C432.083 150.716 425.077 149.352 415.777 149.352ZM500.405 126.102H529.421V255H500.405V126.102ZM559.257 255V126.102H646.305V150.468H588.273V175.764H639.795V199.572H588.273V230.634H650.583V255H559.257ZM707.21 232.866C711.302 232.866 714.65 232.556 717.254 231.936C719.982 231.192 722.152 230.262 723.764 229.146C725.376 227.906 726.492 226.48 727.112 224.868C727.732 223.256 728.042 221.458 728.042 219.474C728.042 215.258 726.058 211.786 722.09 209.058C718.122 206.206 711.302 203.168 701.63 199.944C697.414 198.456 693.198 196.782 688.982 194.922C684.766 192.938 680.984 190.52 677.636 187.668C674.288 184.692 671.56 181.158 669.452 177.066C667.344 172.85 666.29 167.766 666.29 161.814C666.29 155.862 667.406 150.53 669.638 145.818C671.87 140.982 675.032 136.89 679.124 133.542C683.216 130.194 688.176 127.652 694.004 125.916C699.832 124.056 706.404 123.126 713.72 123.126C722.4 123.126 729.902 124.056 736.226 125.916C742.55 127.776 747.758 129.822 751.85 132.054L743.48 154.932C739.884 153.072 735.854 151.46 731.39 150.096C727.05 148.608 721.78 147.864 715.58 147.864C708.636 147.864 703.614 148.856 700.514 150.84C697.538 152.7 696.05 155.614 696.05 159.582C696.05 161.938 696.608 163.922 697.724 165.534C698.84 167.146 700.39 168.634 702.374 169.998C704.482 171.238 706.838 172.416 709.442 173.532C712.17 174.524 715.146 175.578 718.37 176.694C725.066 179.174 730.894 181.654 735.854 184.134C740.814 186.49 744.906 189.28 748.13 192.504C751.478 195.728 753.958 199.51 755.57 203.85C757.182 208.19 757.988 213.46 757.988 219.66C757.988 231.688 753.772 241.05 745.34 247.746C736.908 254.318 724.198 257.604 707.21 257.604C701.506 257.604 696.36 257.232 691.772 256.488C687.184 255.868 683.092 255.062 679.496 254.07C676.024 253.078 672.986 252.024 670.382 250.908C667.902 249.792 665.794 248.738 664.058 247.746L672.242 224.682C676.086 226.79 680.798 228.712 686.378 230.448C692.082 232.06 699.026 232.866 707.21 232.866Z" fill="#FB491B"/>
</svg>
